<svg width="15" height="17" viewBox="0 0 15 17" fill="none" xmlns="http://www.w3.org/2000/svg">
<g clip-path="url(#clip0_1849_4)">
<path d="M8.72548 16.5991C9.49877 17.0911 10.5532 17.0208 11.3265 16.5288C12.8028 15.5446 14.9118 13.4356 14.9821 9.00679C15.0524 6.96812 13.5058 5.14036 11.4671 4.99976C10.6235 4.92946 9.77996 5.21066 9.14727 5.63245C8.16309 6.26514 6.82741 6.26514 5.84323 5.63245C5.21054 5.21066 4.36696 4.92946 3.52337 4.99976C1.48471 5.14036 -0.0618655 6.96812 0.00843324 9.00679C0.078732 13.4356 2.1877 15.6149 3.66397 16.5288C4.43726 17.0208 5.42144 17.0208 6.26502 16.5991C6.96801 16.1773 7.95219 16.1773 8.72548 16.5991ZM7.24921 1.13333C8.16309 2.04721 8.51458 3.24229 8.30369 4.36707C7.17891 4.57797 5.98383 4.22647 5.06995 3.31259C4.15606 2.3987 3.80457 1.20363 4.01546 0.0788458C5.06995 -0.13205 6.33532 0.219443 7.24921 1.13333Z" fill="#97D4D9"/>
</g>
<defs>
<clipPath id="clip0_1849_4">
<rect width="15" height="16.9508" fill="white" transform="matrix(-1 0 0 1 15 0)"/>
</clipPath>
</defs>
</svg>
