<svg width="16" height="14" viewBox="0 0 16 14" fill="none" xmlns="http://www.w3.org/2000/svg">
<path d="M0.195881 7.47437L6.19555 13.474C6.32063 13.5991 6.49029 13.6694 6.66719 13.6694C6.84409 13.6694 7.01374 13.5991 7.13883 13.474C7.26391 13.3489 7.33419 13.1793 7.33419 13.0024C7.33419 12.8255 7.26391 12.6558 7.13883 12.5308L2.2766 7.66936H15.3334C15.5102 7.66936 15.6797 7.59912 15.8047 7.4741C15.9298 7.34909 16 7.17953 16 7.00273C16 6.82592 15.9298 6.65636 15.8047 6.53135C15.6797 6.40633 15.5102 6.3361 15.3334 6.3361H2.2766L7.13883 1.4747C7.26391 1.34961 7.33419 1.17996 7.33419 1.00306C7.33419 0.82616 7.26391 0.656506 7.13883 0.531419C7.01374 0.406333 6.84409 0.33606 6.66719 0.33606C6.49029 0.33606 6.32063 0.406333 6.19555 0.531419L0.195881 6.53109C0.1339 6.593 0.0847301 6.66652 0.0511827 6.74745C0.0176344 6.82837 0.000368118 6.91512 0.000368118 7.00273C0.000368118 7.09033 0.0176344 7.17708 0.0511827 7.25801C0.0847301 7.33893 0.1339 7.41245 0.195881 7.47437Z" fill="white"/>
</svg>
