<svg width="16" height="14" viewBox="0 0 16 14" fill="none" xmlns="http://www.w3.org/2000/svg">
<path d="M15.8041 7.47437L9.80445 13.474C9.67937 13.5991 9.50971 13.6694 9.33281 13.6694C9.15591 13.6694 8.98626 13.5991 8.86117 13.474C8.73609 13.3489 8.66581 13.1793 8.66581 13.0024C8.66581 12.8255 8.73609 12.6558 8.86117 12.5308L13.7234 7.66936H0.666629C0.489828 7.66936 0.320269 7.59912 0.195251 7.4741C0.0702341 7.34909 0 7.17953 0 7.00273C0 6.82592 0.0702341 6.65636 0.195251 6.53135C0.320269 6.40633 0.489828 6.3361 0.666629 6.3361H13.7234L8.86117 1.4747C8.73609 1.34961 8.66581 1.17996 8.66581 1.00306C8.66581 0.82616 8.73609 0.656506 8.86117 0.531419C8.98626 0.406333 9.15591 0.33606 9.33281 0.33606C9.50971 0.33606 9.67937 0.406333 9.80445 0.531419L15.8041 6.53109C15.8661 6.593 15.9153 6.66652 15.9488 6.74745C15.9824 6.82837 15.9996 6.91512 15.9996 7.00273C15.9996 7.09033 15.9824 7.17708 15.9488 7.25801C15.9153 7.33893 15.8661 7.41245 15.8041 7.47437Z" fill="white"/>
</svg>
