<svg width="20" height="20" viewBox="0 0 20 20" fill="none" xmlns="http://www.w3.org/2000/svg">
<path d="M12.0271 1.39281C12.0543 1.29128 12.1012 1.1961 12.1651 1.1127C12.2291 1.0293 12.3088 0.95932 12.3999 0.906757C12.4909 0.854194 12.5913 0.820079 12.6955 0.806361C12.7997 0.792642 12.9056 0.79959 13.0071 0.826806C14.4902 1.21376 15.8433 1.98906 16.9271 3.07286C18.0109 4.15667 18.7862 5.50979 19.1732 6.99287C19.2004 7.09438 19.2074 7.20026 19.1936 7.30446C19.1799 7.40866 19.1458 7.50913 19.0932 7.60014C19.0407 7.69115 18.9707 7.77091 18.8873 7.83487C18.8039 7.89882 18.7087 7.94572 18.6072 7.97288C18.5396 7.99063 18.4701 7.9997 18.4002 7.99988C18.2239 7.99987 18.0525 7.94163 17.9128 7.83422C17.773 7.7268 17.6726 7.57622 17.6272 7.40587C17.3116 6.19518 16.6788 5.09056 15.7941 4.20586C14.9094 3.32117 13.8048 2.68841 12.5941 2.37282C12.4925 2.34577 12.3972 2.29895 12.3137 2.23505C12.2302 2.17114 12.1601 2.09139 12.1074 2.00037C12.0548 1.90935 12.0206 1.80884 12.0068 1.70459C11.993 1.60034 11.9999 1.49439 12.0271 1.39281ZM11.7941 5.57285C13.1731 5.94086 14.0591 6.82686 14.4271 8.20588C14.4725 8.37622 14.5729 8.52681 14.7127 8.63422C14.8525 8.74164 15.0239 8.79988 15.2002 8.79988C15.27 8.79971 15.3396 8.79063 15.4072 8.77288C15.5087 8.74573 15.6039 8.69883 15.6873 8.63488C15.7707 8.57092 15.8406 8.49116 15.8932 8.40015C15.9458 8.30914 15.9799 8.20867 15.9936 8.10447C16.0073 8.00027 16.0004 7.89439 15.9732 7.79287C15.4612 5.87685 14.1231 4.53884 12.2071 4.02684C12.0021 3.97207 11.7837 4.00099 11.6 4.10723C11.4164 4.21347 11.2824 4.38833 11.2276 4.59334C11.1728 4.79836 11.2018 5.01673 11.308 5.20042C11.4142 5.38412 11.5891 5.51808 11.7941 5.57285ZM19.9882 15.1079C19.8099 16.463 19.1444 17.7068 18.1161 18.607C17.0878 19.5073 15.7669 20.0024 14.4001 20C6.46007 20 9.04873e-06 13.5399 9.04873e-06 5.59985C-0.00244095 4.23313 0.492701 2.91225 1.39296 1.88391C2.29321 0.855574 3.53701 0.190106 4.89206 0.0117977C5.23471 -0.0300417 5.58171 0.0400601 5.88125 0.211638C6.18079 0.383217 6.41681 0.647069 6.55407 0.963807L8.66609 5.67885V5.69085C8.77118 5.93331 8.81458 6.19802 8.79242 6.46134C8.77026 6.72466 8.68322 6.97839 8.53909 7.19987C8.52109 7.22687 8.50209 7.25187 8.48209 7.27687L6.40007 9.74489C7.14908 11.2669 8.74109 12.8449 10.2831 13.5959L12.7171 11.5249C12.741 11.5048 12.7661 11.4861 12.7921 11.4689C13.0134 11.3213 13.268 11.2312 13.5329 11.2068C13.7978 11.1823 14.0646 11.2243 14.3091 11.3289L14.3221 11.3349L19.0332 13.4459C19.3505 13.5827 19.615 13.8185 19.7871 14.1181C19.9593 14.4177 20.0298 14.7649 19.9882 15.1079ZM18.4002 14.9079C18.4002 14.9079 18.3932 14.9079 18.3892 14.9079L13.6891 12.8029L11.2541 14.8739C11.2305 14.894 11.2058 14.9126 11.1801 14.9299C10.9499 15.0836 10.6837 15.1748 10.4077 15.1948C10.1316 15.2148 9.85507 15.1628 9.6051 15.0439C7.73208 14.1389 5.86507 12.2859 4.95906 10.4329C4.83908 10.1848 4.78525 9.90982 4.80277 9.63475C4.82029 9.35968 4.90857 9.0938 5.05906 8.86288C5.07602 8.83577 5.09508 8.81002 5.11606 8.78588L7.20008 6.31486L5.10006 1.61481C5.09966 1.61082 5.09966 1.6068 5.10006 1.60281C4.1303 1.72931 3.23992 2.20498 2.59565 2.94074C1.95137 3.6765 1.5974 4.62188 1.60002 5.59985C1.60373 8.99352 2.9535 12.2471 5.35319 14.6468C7.75287 17.0465 11.0065 18.3963 14.4001 18.4C15.3775 18.4033 16.3226 18.0506 17.0588 17.4077C17.795 16.7649 18.2719 15.8759 18.4002 14.9069V14.9079Z" fill="#122130" fill-opacity="0.5"/>
</svg>
