<svg width="28" height="12" viewBox="0 0 28 12" fill="none" xmlns="http://www.w3.org/2000/svg">
<path d="M16.3376 1.5825L6.00052 11.735C5.82789 11.9048 5.59544 12 5.35329 12C5.11115 12 4.8787 11.9048 4.70607 11.735L0.275872 7.38444C0.189438 7.29945 0.120591 7.19826 0.0732624 7.08666C0.0259338 6.97506 0.00105028 6.85522 3.25364e-05 6.73401C-0.000985207 6.61279 0.0218827 6.49256 0.0673307 6.38017C0.112779 6.26779 0.179917 6.16547 0.264911 6.07903C0.349906 5.9926 0.451093 5.92375 0.562695 5.87642C0.674296 5.82909 0.794127 5.80421 0.915346 5.80319C1.03656 5.80218 1.1568 5.82504 1.26918 5.87049C1.38156 5.91594 1.48389 5.98308 1.57032 6.06807L5.35329 9.78298L15.0443 0.264974C15.2191 0.0933194 15.4548 -0.00189962 15.6997 0.000263986C15.821 0.00133529 15.9409 0.0262822 16.0525 0.0736807C16.1641 0.121079 16.2653 0.190001 16.3503 0.276511C16.4353 0.36302 16.5025 0.465424 16.5479 0.577875C16.5933 0.690326 16.6161 0.810621 16.615 0.931893C16.614 1.05316 16.589 1.17304 16.5416 1.28467C16.4942 1.3963 16.4253 1.4975 16.3388 1.5825H16.3376ZM27.4247 0.276511C27.3397 0.189936 27.2385 0.120957 27.1269 0.073517C27.0153 0.0260773 26.8954 0.0011075 26.7741 3.60141e-05C26.6528 -0.00103547 26.5325 0.0218118 26.42 0.0672719C26.3076 0.112732 26.2052 0.179913 26.1187 0.264974L16.4276 9.78298L14.2552 7.64864C14.0805 7.47713 13.8448 7.38206 13.6 7.38433C13.3552 7.38661 13.1213 7.48604 12.9498 7.66075C12.7783 7.83547 12.6832 8.07115 12.6855 8.31596C12.6878 8.56078 12.7872 8.79466 12.9619 8.96616L15.7804 11.735C15.953 11.9048 16.1855 12 16.4276 12C16.6698 12 16.9022 11.9048 17.0749 11.735L27.412 1.5825C27.4986 1.49761 27.5677 1.39649 27.6152 1.28489C27.6628 1.1733 27.6879 1.05343 27.689 0.932134C27.6902 0.810841 27.6675 0.690506 27.6221 0.578009C27.5768 0.465512 27.5097 0.36306 27.4247 0.276511Z" fill="#122130"/>
</svg>
