<svg width="25" height="19" viewBox="0 0 25 19" fill="none" xmlns="http://www.w3.org/2000/svg">
<g clip-path="url(#clip0_1899_10)">
<path d="M24.1071 13.3929H23.2143V2.67857C23.2143 1.96817 22.9321 1.28687 22.4298 0.784535C21.9274 0.282206 21.2461 0 20.5357 0H4.46429C3.75388 0 3.07258 0.282206 2.57025 0.784535C2.06792 1.28687 1.78571 1.96817 1.78571 2.67857V13.3929H0.892857C0.656057 13.3929 0.428955 13.4869 0.261512 13.6544C0.0940686 13.8218 0 14.0489 0 14.2857V16.0714C0 16.7818 0.282206 17.4631 0.784535 17.9655C1.28687 18.4678 1.96817 18.75 2.67857 18.75H22.3214C23.0318 18.75 23.7131 18.4678 24.2155 17.9655C24.7178 17.4631 25 16.7818 25 16.0714V14.2857C25 14.0489 24.9059 13.8218 24.7385 13.6544C24.571 13.4869 24.3439 13.3929 24.1071 13.3929ZM10.7143 2.67857H14.2857C14.5225 2.67857 14.7496 2.77264 14.9171 2.94008C15.0845 3.10753 15.1786 3.33463 15.1786 3.57143C15.1786 3.80823 15.0845 4.03533 14.9171 4.20277C14.7496 4.37022 14.5225 4.46429 14.2857 4.46429H10.7143C10.4775 4.46429 10.2504 4.37022 10.0829 4.20277C9.9155 4.03533 9.82143 3.80823 9.82143 3.57143C9.82143 3.33463 9.9155 3.10753 10.0829 2.94008C10.2504 2.77264 10.4775 2.67857 10.7143 2.67857ZM23.2143 16.0714C23.2143 16.3082 23.1202 16.5353 22.9528 16.7028C22.7853 16.8702 22.5582 16.9643 22.3214 16.9643H2.67857C2.44177 16.9643 2.21467 16.8702 2.04723 16.7028C1.87978 16.5353 1.78571 16.3082 1.78571 16.0714V15.1786H23.2143V16.0714Z" fill="#8E78E7"/>
</g>
<defs>
<clipPath id="clip0_1899_10">
<rect width="25" height="18.75" fill="white"/>
</clipPath>
</defs>
</svg>
