<svg width="109" height="76" viewBox="0 0 109 76" fill="none" xmlns="http://www.w3.org/2000/svg">
<path d="M32.5448 22.1401L32.5777 22.0763C32.5919 21.9343 32.4806 21.8365 32.244 21.7828C31.9577 21.5542 31.6768 21.1946 31.3913 20.7052C31.1693 20.3449 30.9975 19.956 30.8807 19.5492C30.8595 19.4685 30.8501 19.385 30.853 19.3016C30.8551 19.2312 30.8903 19.1871 30.9475 19.1607C31.0203 19.1231 31.0986 19.0974 31.1796 19.0845L31.393 19.0205C31.679 18.8882 31.8825 18.8253 32.0146 18.8406C32.1565 18.8547 32.27 18.9724 32.3527 19.1737C32.4961 19.5587 32.7858 19.9072 33.201 20.2116C33.615 20.5061 34.1071 20.6917 34.6562 20.7605C35.1449 20.826 35.6026 20.7948 36.0107 20.6789C36.4178 20.553 36.6332 20.3283 36.6758 19.9927C36.6927 19.67 36.622 19.3488 36.4714 19.063C36.4603 18.964 36.4107 18.8793 36.3512 18.7957C36.0171 18.4811 35.7132 18.1358 35.4435 17.7644C35.231 17.6579 35.0141 17.5117 34.7839 17.337L34.3512 17.0546C33.941 16.7721 33.567 16.4402 33.2378 16.0664C32.8456 15.609 32.5899 15.2065 32.4598 14.8501C32.1799 14.5004 32.0859 14.0196 32.1668 13.3989C32.2509 12.7177 32.5023 12.098 32.9023 11.5518C33.3369 10.9479 33.8405 10.3968 34.4028 9.90967C34.9018 9.39817 35.4655 8.95409 36.0797 8.58871L36.7185 8.11603C36.7427 8.06319 36.7603 8.04117 36.7911 8.04774L36.8593 8.03007C36.9066 8.00472 37.0727 7.96605 37.3456 7.89536C37.6173 7.81478 37.9197 7.65053 38.2452 7.42354C39.1913 7.09693 40.012 6.90469 40.714 6.816C41.4357 6.72508 42.0255 6.70912 42.4933 6.767C43.0568 6.87431 43.5489 7.15004 43.9785 7.58319C44.4202 8.03504 44.6429 8.5014 44.65 9.01198C44.6655 9.15061 44.659 9.27166 44.6481 9.3531C44.5782 9.89236 44.2717 10.4682 43.7584 11.0772C43.2242 11.6785 42.7096 12.0971 42.1706 12.2979C41.9639 12.3687 41.7441 12.3933 41.5269 12.37C41.3063 12.3499 41.0999 12.2522 40.9445 12.0944C40.8822 12.0234 40.838 11.9384 40.8155 11.8467C40.793 11.755 40.7929 11.6592 40.8153 11.5674C40.8404 11.4138 40.9034 11.2689 40.9987 11.1458C41.1217 10.9916 41.3845 10.7416 41.7682 10.4078C42.3563 9.75031 42.6728 9.26363 42.7066 8.93898C42.7438 8.73428 42.6259 8.57703 42.376 8.49474C41.9342 8.42894 41.4843 8.43867 41.0457 8.5235C40.3206 8.58471 39.9575 8.65547 39.9554 8.7259C39.9576 8.74571 39.94 8.76773 39.9148 8.81067C39.9181 8.84038 39.8884 8.84371 39.8553 8.81733C39.7937 8.80418 39.3526 8.98396 38.5145 9.3787C37.6962 9.77121 37.2705 9.9994 37.2288 10.0743C37.2057 10.137 37.1442 10.2141 37.0221 10.2879C36.9286 10.3485 36.8131 10.3916 36.6778 10.4368C36.3918 10.5691 36.1213 10.7499 35.8673 10.9889C35.6255 11.2466 35.2991 11.6442 34.899 12.1903C34.6836 12.415 34.5011 12.6661 34.3506 12.9336C34.2111 13.2099 34.1189 13.4609 34.095 13.6942C34.0731 13.8571 34.0787 13.9969 34.102 14.1146C34.1275 14.3423 34.2531 14.5689 34.4778 14.7844C34.7124 14.9987 35.165 15.3691 35.8357 15.8956C36.5162 16.4209 37.1175 16.9552 37.6517 17.517C38.1838 18.059 38.5011 18.4746 38.5938 18.765C38.7746 19.1258 38.8355 19.5802 38.7656 20.1195C38.711 20.5266 38.5958 20.9306 38.4355 21.2895C38.2641 21.5493 38.0585 21.7729 37.8309 21.9789C37.5957 22.2058 37.3944 22.2885 37.2403 22.2557C37.0917 22.2723 36.9564 22.3176 36.8508 22.3595C36.7375 22.4223 36.6407 22.4532 36.5637 22.4819C36.3811 22.5525 35.9146 22.5947 35.1729 22.5976C34.5739 22.6268 33.9734 22.6001 33.3792 22.5179L32.5448 22.1401Z" fill="#604AFF"/>
<path fill-rule="evenodd" clip-rule="evenodd" d="M41.0908 21.6429C41.0599 21.5461 40.9453 21.4185 40.7658 21.2482C40.5852 21.0679 40.4948 20.9777 40.4915 20.948C40.444 20.7483 40.3752 20.5544 40.2863 20.3694C40.1805 20.2308 40.3199 19.8643 40.6737 19.2631C41.0374 18.6609 41.511 17.9661 42.0813 17.1501C42.1836 17.0785 42.3089 16.9441 42.476 16.7349C42.6551 16.5444 42.753 16.4331 42.8003 16.4078C42.8134 16.3461 42.8387 16.3032 42.8849 16.268C42.9387 16.2118 42.997 16.1952 43.0576 16.1985L43.2718 15.8736C43.3587 15.7536 43.6687 15.4782 44.2427 15.0529C44.8167 14.6276 45.2665 14.3466 45.5723 14.2121C45.8759 14.0577 46.1806 14.0035 46.5064 14.0472C46.8531 14.0986 47.1294 14.2381 47.3563 14.4734L47.8718 15.0473L48.525 15.7763L49.2389 16.5987L48.7238 17.639C48.5349 18.0112 48.4252 18.3744 48.3738 18.7211C48.305 19.2702 48.3957 19.8115 48.624 20.3274C48.6825 20.4913 48.7585 20.6332 48.8697 20.731C48.9821 20.8388 49.1417 20.9211 49.3388 20.9793C49.6503 21.0747 49.7913 21.2594 49.7497 21.5148C49.706 21.8405 49.6116 22.0717 49.4863 22.2061C49.3689 22.3399 49.2088 22.4287 49.0331 22.4574L48.55 22.4413C48.123 22.3889 47.7543 22.2297 47.4338 21.9648C47.0715 21.6296 46.8084 21.2012 46.6733 20.7265C46.5369 20.4068 46.4483 20.0687 46.4105 19.7232C46.2322 19.9038 46.0395 20.0695 45.8344 20.2189C44.1454 21.5212 42.8387 22.1188 41.9021 21.9932C41.6032 21.9585 41.321 21.8367 41.0908 21.6429ZM42.5209 19.9986C42.7487 20.0634 43.2371 19.8582 43.9772 19.3943C44.1729 19.2701 44.3658 19.1415 44.5557 19.0086C45.2464 18.6384 45.8701 18.155 46.4008 17.5785L46.9921 16.8605C46.9342 16.6139 46.8298 16.3805 46.6845 16.173C46.5798 16.0444 46.4708 15.9664 46.3596 15.9588C46.0735 15.9106 45.6776 16.1355 45.1674 16.5937C44.666 17.041 44.0428 17.7425 43.2987 18.7082C43.0954 18.9516 42.9328 19.2005 42.7834 19.4779L42.5209 19.9986Z" fill="#604AFF"/>
<path d="M51.1938 20.7828C51.3553 21.6872 51.5044 22.2119 51.6498 22.3461C51.7665 22.4934 51.9163 22.5769 52.099 22.5965C52.4963 22.6523 52.9407 22.5022 53.4498 22.1243C53.6554 21.9007 53.8753 21.7156 54.0996 21.5702L54.512 21.3134C54.6792 21.1944 55.0024 20.8573 55.5059 20.3397C55.9834 19.8747 56.4132 19.363 56.7886 18.8122C56.9171 18.6173 57.0315 18.4742 57.1403 18.3717C57.4085 18.081 57.5678 17.8024 57.6061 17.5174C57.6207 17.4357 57.6155 17.3517 57.5909 17.2725C57.5663 17.1932 57.5231 17.121 57.4648 17.062C57.37 16.9322 57.2126 16.8696 57.0024 16.8731C56.844 16.8909 56.5976 17.0188 56.2633 17.2568C55.9389 17.4936 55.674 17.7239 55.4761 17.9265L54.7285 18.6821C54.1974 19.2734 53.6344 19.8352 53.0421 20.3651C52.9585 20.4246 52.909 20.4302 52.8837 20.3829C52.8558 20.3039 52.8397 20.2212 52.8361 20.1375C52.8228 20.0187 52.8106 19.9098 52.7808 19.8229C52.7741 19.3519 52.7714 18.8809 52.7729 18.41C52.7327 16.7099 52.5602 15.7967 52.2619 15.6396C52.1258 15.6091 51.9862 15.5978 51.847 15.6059C51.6456 15.5984 51.5257 15.6018 51.4608 15.6492C51.3068 15.7066 51.1529 15.8542 51.0067 16.0711C50.8691 16.2566 50.7797 16.4733 50.7465 16.7019C50.7345 16.7734 50.7346 16.8636 50.7479 16.9825C50.8595 17.5315 50.9183 17.9661 50.9318 18.2654C50.9479 19.0356 51.0422 19.8773 51.1938 20.7828Z" fill="#604AFF"/>
<path fill-rule="evenodd" clip-rule="evenodd" d="M59.6501 24.5873C58.8158 24.4803 58.1872 24.1497 57.7366 23.6186C57.2971 23.0963 57.1292 22.4032 57.2439 21.5481C57.2865 21.2125 57.3654 20.8426 57.4508 20.442C57.5331 20.1019 57.7318 19.6385 58.0592 19.0703C58.3953 18.4912 58.835 17.9406 59.3385 17.4229C60.001 16.7476 60.8692 16.3116 61.8066 16.1838C62.0035 16.1517 62.2236 16.1471 62.4679 16.1798C62.9698 16.223 63.4506 16.4013 63.8593 16.6957C64.2106 16.9672 64.4332 17.2531 64.5457 17.5413C64.6692 17.8383 64.708 18.0946 64.6894 18.2872L64.6698 18.4699C64.6392 18.6438 64.5019 18.9399 64.2305 19.3814C63.9679 19.8119 63.5809 20.2063 63.0784 20.5534C62.5968 20.9081 62.0016 21.055 61.294 21.004C60.9473 20.9526 60.6083 20.8803 60.2858 20.7761C59.9721 20.6608 59.775 20.6027 59.6936 20.5918C59.479 20.5556 59.3261 20.6229 59.2525 20.7715C59.169 20.9213 59.0988 21.1898 59.0508 21.5662C59.0457 21.9679 59.1098 22.2715 59.2706 22.454C59.4314 22.6365 59.6956 22.7573 60.0412 22.7988C60.2151 22.8295 60.4231 22.8062 60.6651 22.7289C60.917 22.6505 61.2118 22.5072 61.5692 22.2967C61.7561 22.1755 61.9079 22.0983 62.0223 22.0454C62.1419 21.9988 62.2716 21.9843 62.3986 22.0032C62.5318 22.0284 62.6738 22.1328 62.8171 22.3373C62.9691 22.5309 63.0397 22.7135 63.0377 22.8741C62.9861 23.0403 62.7828 23.2837 62.4562 23.591C62.1198 23.8995 61.6975 24.1574 61.2003 24.3735C60.7031 24.5897 60.1794 24.6584 59.6501 24.5873ZM61.1098 19.4504C61.385 19.4898 61.5742 19.4786 61.6798 19.4367C61.8349 19.3892 62.078 19.2316 62.4112 18.9837C62.752 18.7149 62.9411 18.5232 62.9696 18.4198C62.9829 18.3486 62.9766 18.2752 62.9514 18.2074C62.9261 18.1395 62.8828 18.0799 62.8262 18.0348C62.6942 17.9073 62.5277 17.8213 62.3473 17.7876L62.1019 17.745C61.9192 17.7253 61.6222 17.8488 61.2208 18.1144C60.8282 18.369 60.483 18.6884 60.1631 19.0552C60.172 19.1344 60.2711 19.2135 60.4616 19.3025C60.6597 19.3705 60.8754 19.4165 61.1098 19.4504Z" fill="#604AFF"/>
<path d="M74.9496 27.0741C75.0311 27.085 75.0905 27.0784 75.1477 27.0519C75.2225 27.0034 75.3301 26.8008 75.4794 26.4332C75.5903 26.1701 75.721 25.9048 75.8517 25.6394C76.1969 24.7363 76.5898 23.8522 77.0288 22.9908C77.1903 22.5702 77.3788 22.1606 77.5933 21.7644C77.8646 21.2326 78.0864 20.7967 78.2258 20.4301L79.3054 18.1634C79.7898 17.2067 80.1138 16.6088 80.2753 16.3501C80.4281 16.1024 80.5082 15.9229 80.5169 15.8217C80.5323 15.7798 80.5267 15.7303 80.5003 15.6731C80.5068 15.5521 80.3657 15.3674 80.0882 15.1277C79.8085 14.8683 79.6323 14.7276 79.5398 14.7079C79.2681 14.7304 79.0014 14.7941 78.7488 14.8968C78.2868 15.0689 77.7874 15.2652 77.2528 15.5056L75.9869 16.199C75.2852 16.5584 74.9179 16.77 74.864 16.8262C74.7397 16.8802 74.5978 16.9563 74.4582 17.0521C73.6835 17.4119 72.9247 17.8047 72.1837 18.2295C72.0683 18.3628 72.074 18.5927 72.1909 18.9206C72.3178 19.2473 72.4578 19.5123 72.6406 19.7124C72.6957 19.7564 72.7497 19.7904 72.8102 19.7937L72.9686 19.7759C73.0467 19.7571 73.1314 19.7075 73.2535 19.6337L73.5087 19.4948L73.9233 19.2578C74.1158 19.1861 74.4468 19.0087 74.8889 18.7485C75.3124 18.5006 75.606 18.3473 75.7776 18.2679C76.4013 17.8978 77.0578 17.5859 77.7387 17.3362L77.4564 17.769C76.9192 18.7968 76.4177 19.8429 75.9529 20.9054C75.3676 22.2143 75.0117 22.8859 74.8863 22.9301C74.5793 23.5846 74.2995 24.2516 74.0475 24.9292C73.8861 25.3684 73.7841 25.7107 73.759 25.9341C73.7313 26.0597 73.7356 26.1902 73.7715 26.3137C73.9016 26.5661 74.1153 26.7654 74.3761 26.8777C74.6095 26.9919 74.7966 27.0511 74.9496 27.0741ZM84.2633 28.136C84.2028 28.1328 84.1147 28.0624 84.0012 27.9448C83.8665 27.7931 83.7672 27.6133 83.7107 27.4184C83.6541 27.2235 83.6418 27.0185 83.6744 26.8183L83.6644 26.7292L83.8411 26.1579C84.0747 25.3797 84.4316 24.5375 84.9028 23.6425C85.0445 23.3859 85.1181 23.2373 85.1159 23.2175L84.5162 23.2346C83.7339 23.3223 83.1958 23.3525 82.8909 23.3165C82.6616 23.2944 82.4432 23.2076 82.2613 23.0662C82.0877 22.9042 81.9496 22.708 81.8558 22.4899C81.7138 22.2871 81.6072 22.0618 81.5405 21.8234C81.4224 21.4857 81.3715 21.2106 81.4098 21.0158C81.4108 20.9689 81.4229 20.9229 81.4449 20.8815L81.4559 20.8001C81.4923 20.7555 81.5206 20.7048 81.5393 20.6504L81.6723 20.4951C81.8723 20.1318 82.0415 19.8521 82.1799 19.6561C82.3558 19.4359 82.4404 19.296 82.4425 19.2256C82.5953 18.9779 83.0932 18.4107 83.9539 17.502C84.8158 16.6033 85.3765 16.0592 85.636 15.8697C85.9643 15.7794 86.2985 15.7118 86.6361 15.6673C86.7792 15.6914 86.9081 15.8575 87.0327 16.1644C87.1661 16.4602 87.2302 16.6737 87.2127 16.7859C86.9169 17.1455 86.5922 17.4803 86.2419 17.7871C85.5516 18.5162 84.9019 19.2508 84.3117 19.9787C83.9257 20.3894 83.6157 20.8655 83.3964 21.3848C83.3901 21.4169 83.3905 21.45 83.3976 21.482C83.4046 21.514 83.4181 21.5442 83.4373 21.5707C83.4913 21.6048 83.5848 21.6344 83.7378 21.6574C84.5466 21.6269 85.1242 21.5922 85.4477 21.5259C85.8031 21.476 86.0319 21.3702 86.1759 21.2237C86.3309 21.086 86.5122 20.825 86.7297 20.4397L87.0637 19.8408C87.4702 19.1735 87.8482 18.6098 88.2065 18.1385C88.5747 17.666 88.8869 17.3202 89.121 17.0834C89.3541 16.8367 89.5014 16.7199 89.5421 16.7254C89.6137 16.7374 89.8042 16.9166 90.1039 17.2641C90.4222 17.5994 90.5643 17.794 90.571 17.8534C90.5403 18.0273 90.4789 18.1946 90.3844 18.3356C90.0429 18.8167 89.6915 19.2906 89.3304 19.7572C88.089 21.5714 86.9784 23.4718 86.0071 25.4439C85.6612 26.2046 85.48 26.646 85.456 26.7891C85.4418 26.9299 85.4612 27.072 85.5125 27.2039C85.4731 27.479 85.3182 27.707 85.04 27.9086C84.7606 28.1003 84.5076 28.1688 84.2633 28.136Z" fill="#604AFF"/>
<path fill-rule="evenodd" clip-rule="evenodd" d="M92.8044 22.4841C92.9012 22.5434 93.0157 22.5807 93.1687 22.6037C93.4317 22.6244 93.7585 22.5877 94.1513 22.5136C94.5429 22.4296 94.8818 22.3215 95.1666 22.1793C95.5307 22.0282 95.8496 21.832 96.1245 21.6007C96.4203 21.377 96.7666 21.0675 97.1349 20.6853C97.789 20.0264 98.2325 19.1879 98.4091 18.2764L98.4439 17.8714C98.4492 17.56 98.3531 17.2399 98.147 16.922C97.9694 16.6257 97.7212 16.3779 97.4245 16.2009C97.3613 16.0984 97.2834 16.0058 97.1932 15.926C97.1343 15.875 97.0605 15.8446 96.9829 15.8393C96.813 15.835 96.6431 15.8473 96.4757 15.876C95.8584 15.9151 95.2786 16.1105 94.7079 16.4752C94.3603 16.6846 93.7975 17.2992 93.0293 18.3178C92.8106 18.5902 92.6151 18.8805 92.4447 19.1854C92.2777 19.4849 92.1998 19.6842 92.2098 19.7733C92.2264 19.9218 92.1946 19.9956 92.123 19.9835C92.1006 20.0144 92.0731 20.0412 92.0417 20.0628C92.0142 20.086 92.0198 20.1355 92.0671 20.2004L92.0541 20.3522C92.0618 20.4216 92.0311 20.5052 92.0004 20.5889C91.9224 20.7881 91.9392 21.0269 92.0319 21.3173C92.1356 21.6165 92.2965 21.8893 92.5179 22.1653C92.6336 22.3027 92.7262 22.4126 92.8044 22.4841ZM95.9389 19.6762C95.7807 19.8744 95.574 20.0881 95.309 20.3184C94.7394 20.7833 94.3028 21.0027 93.998 20.9666C93.7437 20.935 93.6324 20.7469 93.675 20.4112C93.698 20.2583 93.7671 20.07 93.8847 19.8663C94.233 19.3059 94.5374 18.8908 94.7847 18.5923C95.0331 18.3038 95.3069 18.0625 95.6082 17.8884C95.8391 17.7121 96.0614 17.6371 96.2848 17.6622C96.3871 17.6808 96.4708 17.7115 96.5468 17.7632C96.6238 17.8247 96.6317 17.9843 96.6022 18.2583C96.565 18.463 96.5179 18.6688 96.4289 18.8593C96.2851 19.1862 96.1159 19.4659 95.9389 19.6762Z" fill="#604AFF"/>
<path d="M89.0938 30.2612C89.2326 30.4261 89.4264 30.5448 89.6631 30.5985C89.7929 30.5939 89.9557 30.5256 90.1602 30.3823C90.367 30.2589 90.5363 30.0694 90.6703 29.8338C90.8219 29.5762 91.2858 29.063 92.0642 28.314L95.0975 25.4974C95.6352 25.1062 95.9178 24.854 95.9331 24.7219C95.9625 24.6979 95.9897 24.6714 96.0144 24.6426C96.0496 24.5986 96.0793 24.5952 96.1112 24.6117C96.1894 24.5929 96.2554 24.5554 96.2993 24.5004L96.3895 24.4101C96.5975 24.2122 96.8223 24.0327 97.0613 23.8735L98.1665 23.0879C98.3467 22.9073 98.5326 22.7762 98.6822 22.6792C98.7074 22.6362 99.0824 22.3135 99.8081 21.7208C100.544 21.127 101.134 20.6697 101.559 20.3414L101.905 20.1221L102.239 19.8841C102.706 19.5712 102.983 19.3596 103.103 19.266C103.231 19.1613 103.345 19.0182 103.447 18.8464C103.526 18.7358 103.572 18.6055 103.582 18.47C103.592 18.3344 103.563 18.1989 103.501 18.0783C103.447 17.9338 103.374 17.7969 103.285 17.6713C103.219 17.5811 103.159 17.4875 103.103 17.3909C103.054 17.3503 102.996 17.3224 102.933 17.3096C102.873 17.3023 102.812 17.3091 102.755 17.3296C102.703 17.3075 102.647 17.2935 102.59 17.2879C102.458 17.2727 102.363 17.3234 102.307 17.45C102.213 17.5909 101.216 18.4447 99.3058 20.0123C98.1933 20.9669 97.0445 21.8783 95.8619 22.7446C95.8303 22.7979 95.7876 22.8437 95.7366 22.8789C95.6706 22.9164 95.6442 22.9494 95.6376 22.9803C95.6018 23.0387 95.5569 23.0911 95.5046 23.1355C95.4398 23.1829 95.3771 23.2501 95.3243 23.3162C95.2205 23.3295 95.1215 23.3681 95.0361 23.4287C94.9438 23.4992 94.8646 23.5983 94.8064 23.7051C94.7674 23.7863 94.7146 23.86 94.6504 23.9231C94.5767 23.9815 94.5184 23.9981 94.4579 23.9948L94.4172 23.9894L92.1874 25.9238C91.156 26.8315 90.5546 27.3701 90.4029 27.5375C90.3447 27.6443 90.1468 27.847 89.817 28.1246C89.2805 28.7061 88.985 29.2005 88.9326 29.6275C88.9125 29.7385 88.9165 29.8525 88.9443 29.9619C88.9721 30.0712 89.0231 30.1733 89.0938 30.2612Z" fill="#604AFF"/>
<path fill-rule="evenodd" clip-rule="evenodd" d="M94.9032 30.9951C94.9913 31.0654 95.1168 31.1115 95.2599 31.1356C95.5229 31.1563 95.8497 31.1197 96.2501 31.0246C96.9796 30.8826 97.6659 30.5723 98.2542 30.1182C98.539 29.8858 98.8666 29.5884 99.225 29.2073C99.8778 28.5512 100.322 27.7164 100.5 26.8083C100.53 26.6245 100.534 26.4837 100.535 26.4033C100.548 26.071 100.452 25.7509 100.246 25.4331C100.068 25.1367 99.8201 24.8889 99.5234 24.7119C99.4602 24.6094 99.3822 24.5168 99.292 24.437C99.2342 24.3822 99.1599 24.3482 99.0806 24.3404C98.9075 24.3393 98.7346 24.3553 98.5646 24.3882C97.9671 24.425 97.3885 24.6303 96.8002 25.0171C96.5824 25.1317 96.2987 25.3741 95.9811 25.7606C95.4551 26.3698 94.9747 27.0168 94.5436 27.6964C94.3766 27.9959 94.2987 28.1952 94.3086 28.2843C94.3253 28.4328 94.2835 28.5077 94.212 28.4957C94.1923 28.5252 94.1682 28.5516 94.1406 28.5738C94.1032 28.5981 94.1186 28.6465 94.1561 28.7125L94.143 28.8644C94.1508 28.9337 94.13 29.0162 94.0893 29.101C94.0103 29.2903 94.038 29.5379 94.1208 29.8294C94.278 30.2783 94.5473 30.6796 94.9032 30.9951ZM98.0169 28.1795C97.8509 28.3987 97.6553 28.6212 97.398 28.8305C96.8383 29.2943 96.4017 29.5137 96.0968 29.4776C95.8316 29.4372 95.7313 29.2579 95.7739 28.9222C95.7957 28.7594 95.866 28.581 95.9835 28.3773C96.3318 27.8169 96.6252 27.393 96.8527 27.0968C97.1012 26.8082 97.3749 26.567 97.6763 26.3928C97.9072 26.2165 98.1294 26.1415 98.3528 26.1666C98.4651 26.1841 98.5597 26.2236 98.6456 26.2742C98.7018 26.328 98.7108 26.4975 98.6637 26.7935C98.6386 27.0169 98.5904 27.2129 98.5278 27.3703C98.363 27.6895 98.1939 27.9692 98.0169 28.1795Z" fill="#604AFF"/>
<path d="M16.134 48.36C13.3922 49.6795 11.1145 50.7514 8.23247 50.9655C7.1783 51.0415 6.88981 52.652 7.40585 53.2721C7.91132 53.8434 8.39037 54.4246 8.89168 55.005C10.5821 56.9852 12.2684 58.9744 14.16 60.7069C14.9429 61.4382 15.9806 59.9627 15.329 59.16C14.7235 58.4003 14.0957 57.6414 13.468 56.8825C12.7613 56.0326 12.0546 55.1827 11.3604 54.3057C28.1055 61.7035 50.0867 50.2807 59.0964 29.539C59.1794 29.3578 59.1998 29.1699 59.145 29.0023C59.1277 28.9224 59.0928 28.8474 59.0427 28.7827C58.9927 28.7181 58.9288 28.6654 58.8558 28.6287C58.7803 28.5974 58.6987 28.5834 58.6171 28.5877C58.5355 28.592 58.4558 28.6146 58.384 28.6537C58.2189 28.7367 58.0868 28.8732 58.0093 29.041C48.1894 48.2496 29.9072 57.6515 13.5964 52.5352C14.7977 52.0662 15.9378 51.372 16.9862 50.4712C17.2119 50.2897 17.3809 50.0164 17.4602 49.7239C17.5394 49.4313 17.5288 49.1196 17.4264 48.8644C17.3803 48.7445 17.3102 48.6352 17.2205 48.5432C17.1307 48.4512 17.0232 48.3784 16.9044 48.3293C16.7806 48.2819 16.6485 48.2602 16.516 48.2654C16.3836 48.2707 16.2536 48.3029 16.134 48.36Z" fill="#604AFF"/>
</svg>
