<svg width="25" height="15" viewBox="0 0 25 15" fill="none" xmlns="http://www.w3.org/2000/svg">
<g clip-path="url(#clip0_1890_173)">
<path d="M19.1183 1.47059V13.2353C19.1183 13.6253 18.9634 13.9994 18.6876 14.2752C18.4118 14.5509 18.0378 14.7059 17.6478 14.7059H16.1772C15.7871 14.7059 15.4131 14.5509 15.1373 14.2752C14.8615 13.9994 14.7066 13.6253 14.7066 13.2353V8.08823H10.2948V13.2353C10.2948 13.6253 10.1399 13.9994 9.86409 14.2752C9.5883 14.5509 9.21425 14.7059 8.82422 14.7059H7.35364C6.96361 14.7059 6.58956 14.5509 6.31377 14.2752C6.03798 13.9994 5.88305 13.6253 5.88305 13.2353V1.47059C5.88305 1.08056 6.03798 0.706514 6.31377 0.430725C6.58956 0.154936 6.96361 0 7.35364 0H8.82422C9.21425 0 9.5883 0.154936 9.86409 0.430725C10.1399 0.706514 10.2948 1.08056 10.2948 1.47059V6.61765H14.7066V1.47059C14.7066 1.08056 14.8615 0.706514 15.1373 0.430725C15.4131 0.154936 15.7871 0 16.1772 0H17.6478C18.0378 0 18.4118 0.154936 18.6876 0.430725C18.9634 0.706514 19.1183 1.08056 19.1183 1.47059ZM4.04481 2.20588H3.67717C3.28714 2.20588 2.91309 2.36082 2.6373 2.63661C2.36152 2.9124 2.20658 3.28645 2.20658 3.67647V6.61765H1.4961C1.30609 6.61484 1.12206 6.68409 0.98104 6.81147C0.840018 6.93885 0.752464 7.11491 0.735991 7.30423C0.729312 7.4048 0.743385 7.50568 0.777335 7.60059C0.811285 7.6955 0.864387 7.78242 0.933343 7.85594C1.0023 7.92947 1.08563 7.98803 1.17818 8.02799C1.27072 8.06795 1.37048 8.08845 1.47128 8.08823H2.20658V11.0294C2.20658 11.4194 2.36152 11.7935 2.6373 12.0693C2.91309 12.3451 3.28714 12.5 3.67717 12.5H4.04481C4.14232 12.5 4.23583 12.4613 4.30478 12.3923C4.37373 12.3234 4.41246 12.2299 4.41246 12.1323V2.57353C4.41246 2.47602 4.37373 2.38251 4.30478 2.31356C4.23583 2.24462 4.14232 2.20588 4.04481 2.20588ZM24.2654 7.30423C24.2489 7.11523 24.1617 6.93944 24.021 6.8121C23.8804 6.68477 23.6968 6.61531 23.5071 6.61765H22.7948V3.67647C22.7948 3.28645 22.6399 2.9124 22.3641 2.63661C22.0883 2.36082 21.7142 2.20588 21.3242 2.20588H20.9566C20.8591 2.20588 20.7656 2.24462 20.6966 2.31356C20.6277 2.38251 20.5889 2.47602 20.5889 2.57353V12.1323C20.5889 12.2299 20.6277 12.3234 20.6966 12.3923C20.7656 12.4613 20.8591 12.5 20.9566 12.5H21.3242C21.7142 12.5 22.0883 12.3451 22.3641 12.0693C22.6399 11.7935 22.7948 11.4194 22.7948 11.0294V8.08823H23.5301C23.6309 8.08845 23.7307 8.06795 23.8232 8.02799C23.9158 7.98803 23.9991 7.92947 24.068 7.85594C24.137 7.78242 24.1901 7.6955 24.2241 7.60059C24.258 7.50568 24.2721 7.4048 24.2654 7.30423Z" fill="#E16464"/>
</g>
<defs>
<clipPath id="clip0_1890_173">
<rect width="25" height="14.7059" fill="white"/>
</clipPath>
</defs>
</svg>
