<svg width="60" height="60" viewBox="0 0 60 60" fill="none" xmlns="http://www.w3.org/2000/svg">
<rect width="60" height="60" rx="30" fill="#604AFF"/>
<path d="M45.6511 25.3064C45.6516 24.7344 45.5177 24.1704 45.2603 23.6596C45.0029 23.1489 44.6291 22.7058 44.1691 22.3659C43.709 22.0261 43.1756 21.7991 42.6118 21.7032C42.0479 21.6073 41.4694 21.6451 40.9229 21.8137C40.3764 21.9823 39.8771 22.2769 39.4653 22.6738C39.0535 23.0707 38.7406 23.5588 38.552 24.0988C38.3633 24.6387 38.3042 25.2154 38.3792 25.7824C38.4543 26.3494 38.6615 26.8908 38.9841 27.3631L35.4902 31.6669L32.3484 24.4456C32.9214 23.9634 33.3322 23.3166 33.5253 22.5929C33.7183 21.8693 33.6842 21.1038 33.4275 20.4002C33.1708 19.6966 32.704 19.089 32.0904 18.6596C31.4767 18.2303 30.7459 18 29.9969 18C29.248 18 28.5171 18.2303 27.9035 18.6596C27.2898 19.089 26.823 19.6966 26.5663 20.4002C26.3097 21.1038 26.2755 21.8693 26.4686 22.5929C26.6616 23.3166 27.0725 23.9634 27.6455 24.4456L24.5115 31.663L21.0176 27.3592C21.4664 26.7015 21.688 25.9152 21.6486 25.12C21.6092 24.3248 21.311 23.5642 20.7994 22.9541C20.2877 22.3441 19.5908 21.9179 18.8145 21.7406C18.0383 21.5633 17.2254 21.6446 16.4997 21.972C15.7739 22.2994 15.175 22.855 14.7943 23.5543C14.4135 24.2535 14.2717 25.0581 14.3905 25.8454C14.5092 26.6327 14.8821 27.3596 15.4522 27.9154C16.0222 28.4712 16.7584 28.8255 17.5484 28.9242L19.4369 40.2563C19.5181 40.7435 19.7695 41.1861 20.1463 41.5054C20.5231 41.8247 21.001 41.9999 21.4949 42H38.5068C39.0007 41.9999 39.4785 41.8247 39.8554 41.5054C40.2322 41.1861 40.4836 40.7435 40.5648 40.2563L42.4519 28.9294C43.3351 28.8191 44.1476 28.3901 44.7367 27.7229C45.3258 27.0558 45.651 26.1964 45.6511 25.3064ZM30.0008 20.0896C30.3104 20.0896 30.6129 20.1814 30.8703 20.3534C31.1277 20.5253 31.3283 20.7698 31.4467 21.0557C31.5652 21.3417 31.5962 21.6564 31.5358 21.96C31.4754 22.2636 31.3263 22.5424 31.1075 22.7613C30.8886 22.9802 30.6097 23.1292 30.3062 23.1896C30.0026 23.25 29.6879 23.219 29.4019 23.1005C29.116 22.9821 28.8715 22.7815 28.6996 22.5241C28.5276 22.2668 28.4358 21.9642 28.4358 21.6547C28.4358 21.2396 28.6007 20.8415 28.8942 20.548C29.1877 20.2545 29.5858 20.0896 30.0008 20.0896ZM16.4373 25.3064C16.4373 24.9968 16.5291 24.6943 16.701 24.4369C16.873 24.1795 17.1174 23.9789 17.4034 23.8605C17.6894 23.742 18.004 23.711 18.3076 23.7714C18.6112 23.8318 18.8901 23.9809 19.1089 24.1997C19.3278 24.4186 19.4769 24.6975 19.5372 25.0011C19.5976 25.3046 19.5666 25.6193 19.4482 25.9053C19.3297 26.1913 19.1291 26.4357 18.8718 26.6077C18.6144 26.7796 18.3118 26.8714 18.0023 26.8714C17.5872 26.8714 17.1892 26.7065 16.8957 26.413C16.6022 26.1195 16.4373 25.7215 16.4373 25.3064ZM38.5068 39.9133H21.4949L19.6795 29.0259L23.9742 34.3053C24.0714 34.4268 24.1947 34.525 24.3348 34.5927C24.4749 34.6604 24.6284 34.6959 24.7841 34.6965C24.8312 34.6968 24.8782 34.6937 24.9249 34.6874C25.1027 34.6632 25.2712 34.5937 25.4142 34.4854C25.5572 34.3771 25.6699 34.2338 25.7414 34.0692L29.5626 25.279C29.8536 25.3155 30.148 25.3155 30.439 25.279L34.2603 34.0692C34.3318 34.2338 34.4445 34.3771 34.5875 34.4854C34.7305 34.5937 34.899 34.6632 35.0767 34.6874C35.1234 34.6937 35.1705 34.6968 35.2176 34.6965C35.3732 34.6959 35.5267 34.6604 35.6669 34.5927C35.807 34.525 35.9302 34.4268 36.0275 34.3053L40.3222 29.0207L38.5068 39.9133ZM41.9994 26.8714C41.6898 26.8714 41.3873 26.7796 41.1299 26.6077C40.8725 26.4357 40.6719 26.1913 40.5535 25.9053C40.435 25.6193 40.404 25.3046 40.4644 25.0011C40.5248 24.6975 40.6739 24.4186 40.8927 24.1997C41.1116 23.9809 41.3905 23.8318 41.694 23.7714C41.9976 23.711 42.3123 23.742 42.5983 23.8605C42.8843 23.9789 43.1287 24.1795 43.3006 24.4369C43.4726 24.6943 43.5644 24.9968 43.5644 25.3064C43.5644 25.7215 43.3995 26.1195 43.106 26.413C42.8125 26.7065 42.4144 26.8714 41.9994 26.8714Z" fill="white"/>
</svg>
