<svg width="60" height="60" viewBox="0 0 60 60" fill="none" xmlns="http://www.w3.org/2000/svg">
<rect width="60" height="60" rx="30" fill="#604AFF"/>
<path d="M40.9802 28.7708C40.9423 28.6105 40.8654 28.462 40.7563 28.3386C40.6473 28.2151 40.5094 28.1205 40.3549 28.0631L33.1513 25.361L34.9844 16.1916C35.0259 15.9786 34.997 15.7578 34.902 15.5627C34.8071 15.3675 34.6512 15.2085 34.4579 15.1097C34.2647 15.0109 34.0445 14.9776 33.8307 15.0149C33.6169 15.0521 33.421 15.158 33.2726 15.3163L19.2679 30.3214C19.1542 30.4412 19.0719 30.5874 19.0284 30.7468C18.9849 30.9062 18.9816 31.0739 19.0188 31.2349C19.0559 31.3959 19.1324 31.5452 19.2413 31.6694C19.3503 31.7937 19.4883 31.889 19.643 31.9469L26.8492 34.6491L25.0211 43.8084C24.9796 44.0214 25.0085 44.2422 25.1034 44.4373C25.1984 44.6325 25.3543 44.7915 25.5475 44.8903C25.7408 44.9891 25.9609 45.0224 26.1748 44.9851C26.3886 44.9479 26.5845 44.842 26.7329 44.6837L40.7376 29.6786C40.8493 29.5588 40.9298 29.4133 40.9721 29.255C41.0144 29.0967 41.0172 28.9305 40.9802 28.7708ZM27.6732 40.7536L28.9824 34.2039C29.0293 33.9716 28.9921 33.7302 28.8776 33.5228C28.7631 33.3153 28.5787 33.1552 28.3572 33.071L21.75 30.5889L32.331 19.2527L31.0231 25.8023C30.9762 26.0346 31.0134 26.276 31.1278 26.4835C31.2423 26.691 31.4268 26.851 31.6483 26.9352L38.2505 29.4111L27.6732 40.7536Z" fill="white"/>
</svg>
