<svg width="60" height="60" viewBox="0 0 60 60" fill="none" xmlns="http://www.w3.org/2000/svg">
<rect width="60" height="60" rx="30" fill="#604AFF"/>
<path d="M45.348 32.7081C44.987 31.3597 44.3153 30.1145 43.3866 29.0723C42.458 28.0301 41.2982 27.2198 40.0001 26.7064C38.702 26.1929 37.3018 25.9905 35.9115 26.1154C34.5212 26.2403 33.1794 26.6891 31.9936 27.4257L34.4359 17.6744C34.4965 17.4321 34.4795 17.1769 34.3873 16.9449C34.295 16.7128 34.1322 16.5156 33.9218 16.381C32.908 15.7408 31.7756 15.311 30.5923 15.1174C29.4089 14.9237 28.1987 14.9701 27.0336 15.2537C25.8685 15.5373 24.7724 16.0524 23.8105 16.7683C22.8485 17.4842 22.0404 18.3863 21.4342 19.4209C20.8281 20.4555 20.4362 21.6015 20.2819 22.7906C20.1277 23.9797 20.2142 25.1878 20.5364 26.3428C20.8586 27.4978 21.4098 28.5762 22.1573 29.5138C22.9047 30.4515 23.8332 31.2291 24.8873 31.8006L15.221 34.5618C14.9808 34.6302 14.7682 34.7723 14.6132 34.968C14.4581 35.1637 14.3684 35.4031 14.3567 35.6526C14.265 37.6879 14.8712 39.6936 16.0749 41.3374C17.2786 42.9812 19.0077 44.1646 20.9758 44.6915C21.7349 44.8954 22.5174 44.9991 23.3033 45C24.501 44.9968 25.6859 44.7533 26.7878 44.2839C27.8896 43.8145 28.8861 43.1288 29.7181 42.2673C30.5502 41.4058 31.2009 40.3861 31.6317 39.2686C32.0624 38.151 32.2646 36.9584 32.2261 35.7613L39.4501 42.7529C39.6298 42.9267 39.8595 43.0397 40.1069 43.0758C40.3542 43.1119 40.6067 43.0693 40.8285 42.9541C42.636 42.0162 44.0693 40.4895 44.8911 38.6263C45.7129 36.7632 45.8741 34.6753 45.348 32.7081ZM27.3177 31.665C27.3177 31.1935 27.4575 30.7325 27.7195 30.3404C27.9815 29.9484 28.3538 29.6428 28.7895 29.4623C29.2251 29.2819 29.7045 29.2347 30.167 29.3267C30.6295 29.4187 31.0543 29.6457 31.3877 29.9792C31.7212 30.3126 31.9482 30.7374 32.0402 31.1999C32.1322 31.6624 32.085 32.1418 31.9046 32.5774C31.7241 33.0131 31.4185 33.3854 31.0264 33.6474C30.6344 33.9094 30.1734 34.0492 29.7019 34.0492C29.0695 34.0492 28.4631 33.798 28.016 33.3509C27.5689 32.9038 27.3177 32.2973 27.3177 31.665ZM22.5493 23.9165C22.549 22.8117 22.8278 21.7247 23.3598 20.7565C23.8919 19.7883 24.66 18.9703 25.5928 18.3783C26.5256 17.7864 27.5929 17.4397 28.6955 17.3706C29.7981 17.3015 30.9003 17.5121 31.8998 17.9828L29.6676 26.8967C28.8135 26.9031 27.9768 27.1388 27.2449 27.5792C26.513 28.0195 25.9129 28.6484 25.5072 29.4001C24.5966 28.8046 23.8491 27.9911 23.3326 27.0335C22.8161 26.0759 22.5468 25.0045 22.5493 23.9165ZM26.5726 41.7337C25.6161 42.2864 24.5354 42.5884 23.4309 42.6118C22.3264 42.6351 21.2339 42.379 20.2549 41.8671C19.2759 41.3553 18.442 40.6044 17.8308 39.6842C17.2196 38.7639 16.8509 37.7041 16.7588 36.6032L25.5966 34.079C26.0168 34.7948 26.6165 35.3885 27.3365 35.8014C28.0565 36.2143 28.8719 36.4322 29.7019 36.4334H29.8375C29.7775 37.5188 29.4475 38.5721 28.8773 39.4976C28.3072 40.4232 27.515 41.1918 26.5726 41.7337ZM42.3931 38.3064C41.9108 39.1431 41.2492 39.8626 40.456 40.4134L33.8518 34.0224C34.2744 33.2801 34.4893 32.4377 34.4738 31.5837C34.4583 30.7297 34.2131 29.8956 33.7639 29.1691C35.0248 28.5326 36.4575 28.3202 37.8488 28.5637C39.2401 28.8072 40.5156 29.4935 41.4854 30.5204C42.4551 31.5473 43.0674 32.8599 43.231 34.2628C43.3945 35.6657 43.1007 37.084 42.3931 38.3064Z" fill="white"/>
</svg>
