<svg width="60" height="60" viewBox="0 0 60 60" fill="none" xmlns="http://www.w3.org/2000/svg">
<rect width="60" height="60" rx="30" fill="#604AFF"/>
<path d="M45.364 41.8182C45.364 42.1316 45.2395 42.4322 45.0178 42.6539C44.7962 42.8755 44.4956 43 44.1822 43H15.8185C15.5051 43 15.2045 42.8755 14.9829 42.6539C14.7612 42.4322 14.6367 42.1316 14.6367 41.8182V18.1818C14.6367 17.8684 14.7612 17.5678 14.9829 17.3461C15.2045 17.1245 15.5051 17 15.8185 17C16.132 17 16.4326 17.1245 16.6542 17.3461C16.8758 17.5678 17.0004 17.8684 17.0004 18.1818V34.2383L24.4369 26.8002C24.5467 26.6903 24.677 26.6032 24.8205 26.5437C24.964 26.4842 25.1178 26.4536 25.2731 26.4536C25.4284 26.4536 25.5822 26.4842 25.7256 26.5437C25.8691 26.6032 25.9995 26.6903 26.1092 26.8002L30.0004 30.6928L37.7841 22.9091H34.7276C34.4142 22.9091 34.1136 22.7846 33.892 22.5629C33.6703 22.3413 33.5458 22.0407 33.5458 21.7273C33.5458 21.4138 33.6703 21.1132 33.892 20.8916C34.1136 20.67 34.4142 20.5455 34.7276 20.5455H40.6367C40.9502 20.5455 41.2508 20.67 41.4724 20.8916C41.694 21.1132 41.8185 21.4138 41.8185 21.7273V27.6364C41.8185 27.9498 41.694 28.2504 41.4724 28.472C41.2508 28.6937 40.9502 28.8182 40.6367 28.8182C40.3233 28.8182 40.0227 28.6937 39.801 28.472C39.5794 28.2504 39.4549 27.9498 39.4549 27.6364V24.5799L30.8365 33.1998C30.7267 33.3097 30.5964 33.3968 30.4529 33.4563C30.3094 33.5158 30.1557 33.5464 30.0004 33.5464C29.845 33.5464 29.6913 33.5158 29.5478 33.4563C29.4043 33.3968 29.274 33.3097 29.1642 33.1998L25.2731 29.3072L17.0004 37.5799V40.6364H44.1822C44.4956 40.6364 44.7962 40.7609 45.0178 40.9825C45.2395 41.2041 45.364 41.5047 45.364 41.8182Z" fill="white"/>
</svg>
