<svg width="60" height="60" viewBox="0 0 60 60" fill="none" xmlns="http://www.w3.org/2000/svg">
<rect width="60" height="60" rx="30" fill="#604AFF"/>
<path d="M42.5 17.5H17.5C16.5054 17.5 15.5516 17.8951 14.8483 18.5983C14.1451 19.3016 13.75 20.2554 13.75 21.25V38.75C13.75 39.7446 14.1451 40.6984 14.8483 41.4017C15.5516 42.1049 16.5054 42.5 17.5 42.5H42.5C43.4946 42.5 44.4484 42.1049 45.1517 41.4017C45.8549 40.6984 46.25 39.7446 46.25 38.75V21.25C46.25 20.2554 45.8549 19.3016 45.1517 18.5983C44.4484 17.8951 43.4946 17.5 42.5 17.5ZM16.25 25H43.75V27.5H35C34.6685 27.5 34.3505 27.6317 34.1161 27.8661C33.8817 28.1005 33.75 28.4185 33.75 28.75C33.75 29.7446 33.3549 30.6984 32.6517 31.4017C31.9484 32.1049 30.9946 32.5 30 32.5C29.0054 32.5 28.0516 32.1049 27.3484 31.4017C26.6451 30.6984 26.25 29.7446 26.25 28.75C26.25 28.4185 26.1183 28.1005 25.8839 27.8661C25.6495 27.6317 25.3315 27.5 25 27.5H16.25V25ZM17.5 20H42.5C42.8315 20 43.1495 20.1317 43.3839 20.3661C43.6183 20.6005 43.75 20.9185 43.75 21.25V22.5H16.25V21.25C16.25 20.9185 16.3817 20.6005 16.6161 20.3661C16.8505 20.1317 17.1685 20 17.5 20ZM42.5 40H17.5C17.1685 40 16.8505 39.8683 16.6161 39.6339C16.3817 39.3995 16.25 39.0815 16.25 38.75V30H23.875C24.1619 31.4129 24.9284 32.6831 26.0447 33.5955C27.1609 34.5079 28.5583 35.0063 30 35.0063C31.4417 35.0063 32.8391 34.5079 33.9553 33.5955C35.0716 32.6831 35.8381 31.4129 36.125 30H43.75V38.75C43.75 39.0815 43.6183 39.3995 43.3839 39.6339C43.1495 39.8683 42.8315 40 42.5 40Z" fill="white"/>
</svg>
