<svg width="22" height="22" viewBox="0 0 22 22" fill="none" xmlns="http://www.w3.org/2000/svg">
<path d="M17.0269 11.4724L12.1913 9.68555L10.4101 4.84617C10.3046 4.55961 10.1137 4.31229 9.86327 4.1376C9.61282 3.9629 9.3148 3.86924 9.00944 3.86924C8.70407 3.86924 8.40606 3.9629 8.1556 4.1376C7.90514 4.31229 7.7143 4.55961 7.60881 4.84617L5.81631 9.68555L0.976936 11.4668C0.69037 11.5723 0.443055 11.7631 0.26836 12.0136C0.0936661 12.264 0 12.5621 0 12.8674C0 13.1728 0.0936661 13.4708 0.26836 13.7213C0.443055 13.9717 0.69037 14.1626 0.976936 14.268L5.81631 16.0605L7.59756 20.8999C7.70305 21.1865 7.89389 21.4338 8.14435 21.6085C8.39481 21.7832 8.69282 21.8769 8.99819 21.8769C9.30355 21.8769 9.60157 21.7832 9.85202 21.6085C10.1025 21.4338 10.2933 21.1865 10.3988 20.8999L12.1913 16.0605L17.0307 14.2793C17.3173 14.1738 17.5646 13.983 17.7393 13.7325C17.914 13.4821 18.0076 13.184 18.0076 12.8787C18.0076 12.5733 17.914 12.2753 17.7393 12.0248C17.5646 11.7744 17.3173 11.5835 17.0307 11.478L17.0269 11.4724ZM11.3476 14.7687C11.2458 14.8062 11.1533 14.8654 11.0766 14.9421C10.9999 15.0188 10.9407 15.1112 10.9032 15.213L9.00381 20.359L7.10819 15.2168C7.07073 15.1139 7.0112 15.0205 6.93378 14.9431C6.85636 14.8657 6.76294 14.8061 6.66006 14.7687L1.51787 12.873L6.66006 10.9774C6.76294 10.94 6.85636 10.8804 6.93378 10.803C7.0112 10.7256 7.07073 10.6322 7.10819 10.5293L9.00381 5.38711L10.8994 10.5293C10.937 10.6311 10.9961 10.7236 11.0728 10.8003C11.1496 10.877 11.242 10.9362 11.3438 10.9737L16.4897 12.873L11.3476 14.7687ZM12.0038 3.12305C12.0038 2.92413 12.0828 2.73337 12.2235 2.59272C12.3641 2.45206 12.5549 2.37305 12.7538 2.37305H14.2538V0.873047C14.2538 0.674134 14.3328 0.483369 14.4735 0.342717C14.6141 0.202064 14.8049 0.123047 15.0038 0.123047C15.2027 0.123047 15.3935 0.202064 15.5341 0.342717C15.6748 0.483369 15.7538 0.674134 15.7538 0.873047V2.37305H17.2538C17.4527 2.37305 17.6435 2.45206 17.7841 2.59272C17.9248 2.73337 18.0038 2.92413 18.0038 3.12305C18.0038 3.32196 17.9248 3.51272 17.7841 3.65338C17.6435 3.79403 17.4527 3.87305 17.2538 3.87305H15.7538V5.37305C15.7538 5.57196 15.6748 5.76272 15.5341 5.90338C15.3935 6.04403 15.2027 6.12305 15.0038 6.12305C14.8049 6.12305 14.6141 6.04403 14.4735 5.90338C14.3328 5.76272 14.2538 5.57196 14.2538 5.37305V3.87305H12.7538C12.5549 3.87305 12.3641 3.79403 12.2235 3.65338C12.0828 3.51272 12.0038 3.32196 12.0038 3.12305ZM21.7538 7.62305C21.7538 7.82196 21.6748 8.01272 21.5341 8.15338C21.3935 8.29403 21.2027 8.37305 21.0038 8.37305H20.2538V9.12305C20.2538 9.32196 20.1748 9.51272 20.0341 9.65338C19.8935 9.79403 19.7027 9.87305 19.5038 9.87305C19.3049 9.87305 19.1141 9.79403 18.9735 9.65338C18.8328 9.51272 18.7538 9.32196 18.7538 9.12305V8.37305H18.0038C17.8049 8.37305 17.6141 8.29403 17.4735 8.15338C17.3328 8.01272 17.2538 7.82196 17.2538 7.62305C17.2538 7.42413 17.3328 7.23337 17.4735 7.09272C17.6141 6.95206 17.8049 6.87305 18.0038 6.87305H18.7538V6.12305C18.7538 5.92413 18.8328 5.73337 18.9735 5.59272C19.1141 5.45206 19.3049 5.37305 19.5038 5.37305C19.7027 5.37305 19.8935 5.45206 20.0341 5.59272C20.1748 5.73337 20.2538 5.92413 20.2538 6.12305V6.87305H21.0038C21.2027 6.87305 21.3935 6.95206 21.5341 7.09272C21.6748 7.23337 21.7538 7.42413 21.7538 7.62305Z" fill="#604AFF"/>
</svg>
