<svg width="21" height="20" viewBox="0 0 21 20" fill="none" xmlns="http://www.w3.org/2000/svg">
<path d="M11.57 0.290258C12.2789 0.287538 12.9878 0.294662 13.6964 0.311628L13.8849 0.318428C14.1025 0.326199 14.3172 0.335913 14.5765 0.34757C15.6101 0.39614 16.3153 0.559334 16.9341 0.799269C17.5752 1.046 18.1153 1.38016 18.6554 1.92026C19.1492 2.40557 19.5314 2.99263 19.7754 3.6406C20.0154 4.25938 20.1786 4.96558 20.2271 5.99915C20.2388 6.25754 20.2485 6.47319 20.2563 6.69078L20.2621 6.87923C20.2794 7.58757 20.2868 8.29611 20.2844 9.00465L20.2854 9.72931V11.0018C20.2878 11.7107 20.2804 12.4196 20.2631 13.1282L20.2572 13.3167C20.2495 13.5343 20.2398 13.7489 20.2281 14.0083C20.1795 15.0419 20.0144 15.7471 19.7754 16.3659C19.5322 17.0145 19.1499 17.6021 18.6554 18.0872C18.1697 18.581 17.5823 18.9632 16.9341 19.2072C16.3153 19.4471 15.6101 19.6103 14.5765 19.6589C14.3172 19.6706 14.1025 19.6803 13.8849 19.6881L13.6964 19.6939C12.9878 19.7111 12.2789 19.7186 11.57 19.7162L10.8454 19.7172H9.57383C8.86496 19.7196 8.1561 19.7121 7.44744 19.6949L7.25899 19.689C7.02839 19.6807 6.79784 19.671 6.56736 19.6599C5.53379 19.6113 4.82856 19.4462 4.20881 19.2072C3.56058 18.9637 2.97342 18.5815 2.48847 18.0872C1.99407 17.6018 1.61151 17.0143 1.36748 16.3659C1.12754 15.7471 0.964348 15.0419 0.915778 14.0083C0.904959 13.7778 0.895245 13.5473 0.886636 13.3167L0.881779 13.1282C0.86387 12.4196 0.855774 11.7107 0.857494 11.0018V9.00465C0.854783 8.29611 0.861907 7.58757 0.878865 6.87923L0.885665 6.69078C0.893436 6.47319 0.90315 6.25754 0.914806 5.99915C0.963376 4.96461 1.12657 4.26035 1.36651 3.6406C1.61069 2.99231 1.99399 2.40542 2.48944 1.92123C2.97406 1.42655 3.56085 1.04365 4.20881 0.799269C4.82856 0.559334 5.53282 0.39614 6.56736 0.34757L7.25899 0.318428L7.44744 0.313571C8.15577 0.295671 8.86431 0.287575 9.57286 0.289286L11.57 0.290258ZM10.5715 5.14723C9.92791 5.13813 9.28897 5.25703 8.69178 5.497C8.09458 5.73698 7.55104 6.09326 7.09273 6.54513C6.63443 6.997 6.2705 7.53545 6.0221 8.12919C5.7737 8.72293 5.64579 9.36012 5.64579 10.0037C5.64579 10.6473 5.7737 11.2845 6.0221 11.8783C6.2705 12.472 6.63443 13.0105 7.09273 13.4623C7.55104 13.9142 8.09458 14.2705 8.69178 14.5105C9.28897 14.7504 9.92791 14.8693 10.5715 14.8602C11.8596 14.8602 13.095 14.3485 14.0059 13.4376C14.9167 12.5268 15.4284 11.2914 15.4284 10.0032C15.4284 8.71509 14.9167 7.4797 14.0059 6.56884C13.095 5.65798 11.8596 5.14723 10.5715 5.14723ZM10.5715 7.09003C10.9586 7.08289 11.3432 7.15297 11.7029 7.29616C12.0627 7.43936 12.3902 7.6528 12.6665 7.92401C12.9428 8.19523 13.1623 8.51879 13.3122 8.87578C13.462 9.23278 13.5393 9.61606 13.5393 10.0032C13.5394 10.3904 13.4623 10.7737 13.3126 11.1308C13.1628 11.4878 12.9434 11.8114 12.6672 12.0827C12.391 12.3541 12.0635 12.5676 11.7038 12.7109C11.3442 12.8542 10.9595 12.9244 10.5724 12.9174C9.79953 12.9174 9.0583 12.6104 8.51178 12.0639C7.96527 11.5174 7.65824 10.7761 7.65824 10.0032C7.65824 9.23035 7.96527 8.48912 8.51178 7.9426C9.0583 7.39608 9.79953 7.08905 10.5724 7.08905L10.5715 7.09003ZM15.6713 3.69014C15.3579 3.70268 15.0615 3.836 14.8442 4.06216C14.6269 4.28832 14.5056 4.58978 14.5056 4.90341C14.5056 5.21704 14.6269 5.51851 14.8442 5.74467C15.0615 5.97083 15.3579 6.10414 15.6713 6.11669C15.9933 6.11669 16.3022 5.98876 16.5299 5.76104C16.7576 5.53333 16.8855 5.22448 16.8855 4.90244C16.8855 4.58041 16.7576 4.27156 16.5299 4.04384C16.3022 3.81613 15.9933 3.6882 15.6713 3.6882V3.69014Z" fill="white"/>
</svg>
