<svg width="25" height="22" viewBox="0 0 25 22" fill="none" xmlns="http://www.w3.org/2000/svg">
<path d="M24.3323 6.85826C24.2905 8.30884 23.694 9.68816 22.6657 10.7122L19.0462 14.3338C18.519 14.8638 17.892 15.284 17.2013 15.5701C16.5106 15.8562 15.7701 16.0024 15.0225 16.0003H15.0173C14.257 15.9998 13.5045 15.8469 12.8042 15.5506C12.104 15.2544 11.4702 14.8208 10.9404 14.2755C10.4105 13.7302 9.99533 13.0843 9.71931 12.3758C9.44329 11.6674 9.31205 10.9108 9.33334 10.1507C9.33956 9.92974 9.43331 9.72026 9.59398 9.56839C9.75464 9.41651 9.96906 9.33468 10.1901 9.3409C10.4111 9.34711 10.6205 9.44087 10.7724 9.60153C10.9243 9.76219 11.0061 9.97661 10.9999 10.1976C10.9847 10.735 11.0774 11.27 11.2725 11.7709C11.4676 12.2719 11.7611 12.7286 12.1357 13.1142C12.5104 13.4998 12.9585 13.8064 13.4536 14.0159C13.9487 14.2253 14.4808 14.3334 15.0184 14.3338C15.5468 14.3351 16.0703 14.2317 16.5586 14.0295C17.0468 13.8273 17.4902 13.5303 17.863 13.1557L21.4825 9.5362C22.2293 8.78001 22.6466 7.75908 22.6432 6.6963C22.6399 5.63352 22.2162 4.61522 21.4647 3.86372C20.7132 3.11222 19.6949 2.68856 18.6322 2.68523C17.5694 2.68191 16.5485 3.09919 15.7923 3.84597L14.6465 4.99172C14.489 5.1414 14.2792 5.22361 14.0619 5.22082C13.8446 5.21804 13.637 5.13049 13.4834 4.97683C13.3297 4.82317 13.2422 4.61557 13.2394 4.39828C13.2366 4.181 13.3188 3.97122 13.4685 3.81368L14.6142 2.66793C15.1428 2.13914 15.7704 1.71967 16.4612 1.43349C17.1519 1.1473 17.8923 1 18.64 1C19.3877 1 20.128 1.1473 20.8188 1.43349C21.5095 1.71967 22.1371 2.13914 22.6657 2.66793C23.2133 3.2168 23.6434 3.87135 23.9299 4.59174C24.2164 5.31212 24.3533 6.08328 24.3323 6.85826ZM10.6874 17.0065L9.54166 18.1523C9.16796 18.5284 8.72321 18.8266 8.23326 19.0294C7.74331 19.2321 7.21794 19.3355 6.6877 19.3334C5.89223 19.3328 5.11481 19.0964 4.45365 18.6541C3.79249 18.2118 3.27726 17.5834 2.97308 16.8484C2.66889 16.1134 2.58938 15.3047 2.74461 14.5246C2.89983 13.7444 3.28282 13.0277 3.84519 12.4652L7.45847 8.84562C8.02759 8.2735 8.75558 7.88573 9.5479 7.73266C10.3402 7.5796 11.1603 7.66831 11.9015 7.98727C12.6428 8.30624 13.271 8.84072 13.7046 9.52131C14.1382 10.2019 14.3571 10.9971 14.333 11.8037C14.3268 12.0247 14.4086 12.2392 14.5605 12.3998C14.7124 12.5605 14.9218 12.6542 15.1428 12.6605C15.3638 12.6667 15.5782 12.5848 15.7389 12.433C15.8996 12.2811 15.9933 12.0716 15.9995 11.8506C16.0195 11.0768 15.8821 10.3071 15.5957 9.58802C15.3092 8.86896 14.8796 8.2156 14.333 7.66758C13.2655 6.6006 11.8181 6.00121 10.3088 6.00121C8.79953 6.00121 7.35204 6.6006 6.2846 7.66758L2.66714 11.2871C1.87161 12.0823 1.32965 13.0955 1.10976 14.1987C0.889878 15.3018 1.00193 16.4453 1.43176 17.4848C1.86159 18.5243 2.58991 19.413 3.52468 20.0387C4.45944 20.6643 5.5587 20.9989 6.68353 21C7.43126 21.0021 8.17199 20.8559 8.86284 20.5699C9.55368 20.2838 10.1809 19.8636 10.7082 19.3334L11.854 18.1877C11.9888 18.0288 12.0593 17.8252 12.0515 17.617C12.0436 17.4088 11.9581 17.2111 11.8116 17.0628C11.6652 16.9146 11.4686 16.8266 11.2605 16.8162C11.0524 16.8057 10.8479 16.8736 10.6874 17.0065Z" fill="#604AFF" stroke="#604AFF"/>
</svg>
