<svg width="20" height="19" viewBox="0 0 20 19" fill="none" xmlns="http://www.w3.org/2000/svg">
<path d="M4.20536 2.32171C4.20509 2.86054 3.99078 3.37718 3.60959 3.758C3.22839 4.13881 2.71153 4.3526 2.17271 4.35233C1.63389 4.35206 1.11724 4.13776 0.736423 3.75656C0.355609 3.37536 0.141821 2.8585 0.14209 2.31968C0.14236 1.78086 0.356664 1.26421 0.73786 0.883396C1.11906 0.502581 1.63592 0.288793 2.17474 0.289063C2.71356 0.289332 3.23021 0.503637 3.61102 0.884833C3.99184 1.26603 4.20563 1.78289 4.20536 2.32171ZM4.26631 5.85676H0.203039V18.5748H4.26631V5.85676ZM10.6863 5.85676H6.64332V18.5748H10.6456V11.9009C10.6456 8.18298 15.4911 7.8376 15.4911 11.9009V18.5748H19.5036V10.5194C19.5036 4.25176 12.3319 4.4854 10.6456 7.56333L10.6863 5.85676Z" fill="#122130"/>
</svg>
