<svg width="18" height="20" viewBox="0 0 18 20" fill="none" xmlns="http://www.w3.org/2000/svg">
<path d="M8.88889 9.62963C8.2663 9.62984 7.66457 9.85409 7.19369 10.2614C6.72281 10.6687 6.41422 11.2318 6.32433 11.8479C6.23445 12.464 6.36926 13.0918 6.70413 13.6167C7.039 14.1416 7.55157 14.5284 8.14815 14.7065V16.2963C8.14815 16.4928 8.22619 16.6812 8.36511 16.8201C8.50402 16.959 8.69243 17.037 8.88889 17.037C9.08535 17.037 9.27376 16.959 9.41267 16.8201C9.55159 16.6812 9.62963 16.4928 9.62963 16.2963V14.7065C10.2262 14.5284 10.7388 14.1416 11.0736 13.6167C11.4085 13.0918 11.5433 12.464 11.4534 11.8479C11.3636 11.2318 11.055 10.6687 10.5841 10.2614C10.1132 9.85409 9.51148 9.62984 8.88889 9.62963ZM8.88889 13.3333C8.66913 13.3333 8.45431 13.2682 8.27159 13.1461C8.08887 13.024 7.94645 12.8505 7.86236 12.6474C7.77826 12.4444 7.75626 12.221 7.79913 12.0055C7.842 11.7899 7.94782 11.5919 8.10322 11.4365C8.25861 11.2812 8.45659 11.1753 8.67212 11.1325C8.88766 11.0896 9.11106 11.1116 9.31409 11.1957C9.51712 11.2798 9.69065 11.4222 9.81274 11.6049C9.93483 11.7876 10 12.0025 10 12.2222C10 12.5169 9.88294 12.7995 9.67456 13.0079C9.46619 13.2163 9.18357 13.3333 8.88889 13.3333ZM16.2963 6.66667H13.3333V4.44444C13.3333 3.2657 12.8651 2.13524 12.0316 1.30175C11.1981 0.468253 10.0676 0 8.88889 0C7.71015 0 6.57969 0.468253 5.74619 1.30175C4.9127 2.13524 4.44444 3.2657 4.44444 4.44444V6.66667H1.48148C1.08857 6.66667 0.711748 6.82275 0.433916 7.10058C0.156084 7.37841 0 7.75523 0 8.14815V18.5185C0 18.9114 0.156084 19.2883 0.433916 19.5661C0.711748 19.8439 1.08857 20 1.48148 20H16.2963C16.6892 20 17.066 19.8439 17.3439 19.5661C17.6217 19.2883 17.7778 18.9114 17.7778 18.5185V8.14815C17.7778 7.75523 17.6217 7.37841 17.3439 7.10058C17.066 6.82275 16.6892 6.66667 16.2963 6.66667ZM5.92593 4.44444C5.92593 3.65862 6.23809 2.90498 6.79376 2.34931C7.34942 1.79365 8.10306 1.48148 8.88889 1.48148C9.67472 1.48148 10.4284 1.79365 10.984 2.34931C11.5397 2.90498 11.8519 3.65862 11.8519 4.44444V6.66667H5.92593V4.44444ZM16.2963 18.5185H1.48148V8.14815H16.2963V18.5185Z" fill="#122130" fill-opacity="0.5"/>
</svg>
