<svg width="130" height="28" viewBox="0 0 130 28" fill="none" xmlns="http://www.w3.org/2000/svg">
<rect width="28" height="28" rx="3" fill="#604AFF"/>
<path fill-rule="evenodd" clip-rule="evenodd" d="M23 5L18.5 5L14 14L9.5 5L5 5L9.5 14H5L9.5 23L14 23H18.5L23 14H18.5L23 5ZM18.5 14L14 14H9.5L14 23L18.5 14Z" fill="white"/>
<path d="M44.3902 27.5416L34 0.572987H40.4175L48.3247 22.3847H45.6889L53.7108 0.572987H60.0518L49.5471 27.5416H44.3902Z" fill="#122130"/>
<path d="M62.6834 27.5416V8.97681H68.5279V27.5416H62.6834ZM65.6247 6.41746C64.708 6.41746 63.944 6.11187 63.3328 5.50068C62.7471 4.86403 62.4542 4.10004 62.4542 3.20873C62.4542 2.29195 62.7471 1.52797 63.3328 0.91678C63.944 0.305593 64.708 0 65.6247 0C66.5415 0 67.2928 0.305593 67.8785 0.91678C68.4642 1.52797 68.7571 2.29195 68.7571 3.20873C68.7571 4.10004 68.4642 4.86403 67.8785 5.50068C67.2928 6.11187 66.5415 6.41746 65.6247 6.41746Z" fill="#122130"/>
<path d="M79.4048 28C78.3097 28 77.2274 27.8599 76.1579 27.5798C75.1138 27.2997 74.1333 26.905 73.2165 26.3956C72.3252 25.8608 71.5612 25.2497 70.9246 24.5621L74.2479 21.2005C74.8591 21.8627 75.5849 22.3847 76.4253 22.7667C77.2656 23.1232 78.1824 23.3015 79.1756 23.3015C79.8632 23.3015 80.3852 23.1996 80.7418 22.9959C81.1238 22.7922 81.3148 22.5121 81.3148 22.1555C81.3148 21.6971 81.0856 21.3533 80.6272 21.1241C80.1942 20.8695 79.634 20.653 78.9464 20.4748C78.2588 20.271 77.533 20.0546 76.7691 19.8254C76.0051 19.5962 75.2793 19.2779 74.5917 18.8704C73.9041 18.4629 73.3439 17.9027 72.9109 17.1896C72.478 16.4511 72.2615 15.5216 72.2615 14.4011C72.2615 13.2042 72.5671 12.1728 73.1783 11.307C73.7895 10.4156 74.6554 9.71533 75.7759 9.206C76.8964 8.69668 78.2079 8.44202 79.7104 8.44202C81.2893 8.44202 82.7409 8.72215 84.0651 9.2824C85.4148 9.81719 86.5098 10.6194 87.3502 11.6889L84.0269 15.0505C83.4412 14.3629 82.7791 13.879 82.0405 13.5989C81.3275 13.3188 80.6272 13.1787 79.9396 13.1787C79.2775 13.1787 78.7809 13.2806 78.4498 13.4843C78.1188 13.6626 77.9532 13.93 77.9532 14.2865C77.9532 14.6685 78.1697 14.9741 78.6026 15.2033C79.0355 15.4325 79.5958 15.6362 80.2834 15.8145C80.971 15.9927 81.6967 16.2092 82.4607 16.4638C83.2247 16.7185 83.9505 17.0623 84.6381 17.4952C85.3257 17.9281 85.8859 18.5139 86.3188 19.2524C86.7518 19.9654 86.9682 20.9077 86.9682 22.0791C86.9682 23.8872 86.2806 25.3261 84.9055 26.3956C83.5558 27.4652 81.7222 28 79.4048 28Z" fill="#122130"/>
<path d="M95.9835 27.5416L88.1145 8.97681H94.4174L99.7653 24.4475H97.0149L102.363 8.97681H108.551L100.682 27.5416H95.9835Z" fill="#122130"/>
<path d="M119.073 27.9618C117.163 27.9618 115.431 27.5416 113.877 26.7012C112.349 25.8354 111.14 24.6639 110.249 23.1869C109.357 21.7099 108.912 20.0546 108.912 18.221C108.912 16.3874 109.357 14.7449 110.249 13.2933C111.14 11.8417 112.349 10.6958 113.877 9.85539C115.405 8.98954 117.137 8.55662 119.073 8.55662C121.008 8.55662 122.74 8.97681 124.268 9.81719C125.796 10.6576 127.005 11.8163 127.897 13.2933C128.788 14.7449 129.234 16.3874 129.234 18.221C129.234 20.0546 128.788 21.7099 127.897 23.1869C127.005 24.6639 125.796 25.8354 124.268 26.7012C122.74 27.5416 121.008 27.9618 119.073 27.9618ZM119.073 22.6521C119.913 22.6521 120.651 22.4739 121.288 22.1173C121.925 21.7353 122.409 21.2133 122.74 20.5512C123.096 19.8636 123.274 19.0869 123.274 18.221C123.274 17.3552 123.096 16.6039 122.74 15.9673C122.383 15.3051 121.887 14.7958 121.25 14.4393C120.639 14.0573 119.913 13.8663 119.073 13.8663C118.258 13.8663 117.532 14.0573 116.895 14.4393C116.259 14.7958 115.762 15.3051 115.405 15.9673C115.049 16.6294 114.871 17.3934 114.871 18.2592C114.871 19.0996 115.049 19.8636 115.405 20.5512C115.762 21.2133 116.259 21.7353 116.895 22.1173C117.532 22.4739 118.258 22.6521 119.073 22.6521Z" fill="#122130"/>
</svg>
