<svg width="21" height="26" viewBox="0 0 21 26" fill="none" xmlns="http://www.w3.org/2000/svg">
<path d="M18.5714 24.1429H12.8305C13.7949 23.2818 14.7044 22.361 15.5536 21.3862C18.7397 17.7218 20.4286 13.8589 20.4286 10.2143C20.4286 7.50529 19.3524 4.90725 17.4369 2.9917C15.5213 1.07615 12.9233 0 10.2143 0C7.50529 0 4.90725 1.07615 2.9917 2.9917C1.07615 4.90725 0 7.50529 0 10.2143C0 13.8589 1.6842 17.7218 4.875 21.3862C5.72419 22.361 6.63365 23.2818 7.59804 24.1429H1.85714C1.61087 24.1429 1.37469 24.2407 1.20054 24.4148C1.0264 24.589 0.928572 24.8252 0.928572 25.0714C0.928572 25.3177 1.0264 25.5539 1.20054 25.728C1.37469 25.9022 1.61087 26 1.85714 26H18.5714C18.8177 26 19.0539 25.9022 19.228 25.728C19.4022 25.5539 19.5 25.3177 19.5 25.0714C19.5 24.8252 19.4022 24.589 19.228 24.4148C19.0539 24.2407 18.8177 24.1429 18.5714 24.1429ZM1.85714 10.2143C1.85714 7.99783 2.73763 5.87216 4.30489 4.30489C5.87216 2.73762 7.99784 1.85714 10.2143 1.85714C12.4307 1.85714 14.5564 2.73762 16.1237 4.30489C17.691 5.87216 18.5714 7.99783 18.5714 10.2143C18.5714 16.8571 12.1329 22.4018 10.2143 23.9107C8.29563 22.4018 1.85714 16.8571 1.85714 10.2143ZM14.8571 10.2143C14.8571 9.29601 14.5848 8.39837 14.0747 7.63485C13.5645 6.87134 12.8394 6.27625 11.991 5.92484C11.1427 5.57344 10.2091 5.48149 9.30851 5.66064C8.40789 5.83979 7.58061 6.28197 6.93129 6.93129C6.28198 7.58061 5.83979 8.40788 5.66064 9.30851C5.48149 10.2091 5.57344 11.1427 5.92485 11.991C6.27625 12.8394 6.87134 13.5645 7.63485 14.0747C8.39837 14.5848 9.29602 14.8571 10.2143 14.8571C11.4457 14.8571 12.6266 14.368 13.4973 13.4973C14.368 12.6266 14.8571 11.4456 14.8571 10.2143ZM7.42857 10.2143C7.42857 9.66332 7.59195 9.12473 7.89805 8.66663C8.20415 8.20852 8.63922 7.85146 9.14824 7.64062C9.65726 7.42978 10.2174 7.37461 10.7578 7.4821C11.2981 7.58959 11.7945 7.8549 12.1841 8.24449C12.5737 8.63408 12.839 9.13044 12.9465 9.67082C13.054 10.2112 12.9988 10.7713 12.788 11.2803C12.5771 11.7894 12.2201 12.2244 11.7619 12.5305C11.3038 12.8366 10.7653 13 10.2143 13C9.47547 13 8.76691 12.7065 8.24449 12.1841C7.72207 11.6617 7.42857 10.9531 7.42857 10.2143Z" fill="#122130"/>
</svg>
