<svg width="15" height="17" viewBox="0 0 15 17" fill="none" xmlns="http://www.w3.org/2000/svg">
<g clip-path="url(#clip0_1849_2)">
<path d="M14.769 0.128025C14.6975 0.0713385 14.6138 0.0319587 14.5246 0.0129631C14.4353 -0.00603246 14.3429 -0.00412901 14.2545 0.0185247L4.6545 2.41852C4.52482 2.45094 4.40968 2.52573 4.32734 2.63103C4.24501 2.73633 4.20019 2.86611 4.2 2.99977V11.2573C3.69942 10.9228 3.10142 10.7652 2.50102 10.8096C1.90063 10.854 1.33228 11.0977 0.886305 11.5021C0.440327 11.9066 0.142302 12.4484 0.0395892 13.0416C-0.0631233 13.6348 0.0353695 14.2453 0.319416 14.7762C0.603463 15.307 1.05677 15.7276 1.60729 15.9713C2.15782 16.2149 2.77399 16.2676 3.35788 16.1209C3.94177 15.9742 4.45988 15.6366 4.82988 15.1617C5.19989 14.6868 5.40056 14.1018 5.4 13.4998V6.46852L13.8 4.36852V8.85727C13.2994 8.52281 12.7014 8.36524 12.101 8.40961C11.5006 8.45398 10.9323 8.69773 10.4863 9.10214C10.0403 9.50655 9.7423 10.0484 9.63959 10.6416C9.53687 11.2348 9.63537 11.8453 9.91941 12.3762C10.2035 12.907 10.6568 13.3276 11.2073 13.5713C11.7578 13.8149 12.374 13.8676 12.9579 13.7209C13.5418 13.5742 14.0599 13.2366 14.4299 12.7617C14.7999 12.2868 15.0006 11.7018 15 11.0998V0.599775C14.9998 0.508772 14.9789 0.419009 14.9389 0.337278C14.8988 0.255548 14.8408 0.183991 14.769 0.128025Z" fill="#A7BBF4"/>
</g>
<defs>
<clipPath id="clip0_1849_2">
<rect width="15" height="16.8" fill="white"/>
</clipPath>
</defs>
</svg>
