<svg width="20" height="20" viewBox="0 0 20 20" fill="none" xmlns="http://www.w3.org/2000/svg">
<path d="M19.5322 4.93682L15.0632 0.468764C14.9146 0.32015 14.7382 0.202261 14.5441 0.121829C14.3499 0.0413978 14.1418 0 13.9317 0C13.7215 0 13.5134 0.0413978 13.3193 0.121829C13.1251 0.202261 12.9487 0.32015 12.8002 0.468764L0.469013 12.7999C0.319791 12.948 0.201484 13.1242 0.120969 13.3183C0.0404533 13.5125 -0.000663447 13.7207 8.09504e-06 13.9309V18.4C8.09504e-06 18.8243 0.168581 19.2313 0.468643 19.5314C0.768704 19.8314 1.17568 20 1.60003 20H18.4002C18.6124 20 18.8159 19.9157 18.9659 19.7657C19.1159 19.6157 19.2002 19.4122 19.2002 19.2C19.2002 18.9878 19.1159 18.7843 18.9659 18.6343C18.8159 18.4843 18.6124 18.4 18.4002 18.4H8.33211L19.5322 7.19985C19.6809 7.05126 19.7987 6.87486 19.8792 6.68072C19.9596 6.48657 20.001 6.27848 20.001 6.06833C20.001 5.85818 19.9596 5.65009 19.8792 5.45595C19.7987 5.2618 19.6809 5.0854 19.5322 4.93682ZM10.4001 5.13082L12.0692 6.79984L3.60005 15.2689L1.93103 13.5999L10.4001 5.13082ZM1.60003 18.4V15.5309L4.46906 18.4H1.60003ZM6.40008 18.069L4.73206 16.4L13.2002 7.93085L14.8692 9.59987L6.40008 18.069ZM16.0002 8.46886L11.5321 3.99981L13.9322 1.59978L18.4002 6.06883L16.0002 8.46886Z" fill="#122130" fill-opacity="0.5"/>
</svg>
