<svg width="60" height="60" viewBox="0 0 60 60" fill="none" xmlns="http://www.w3.org/2000/svg">
<rect width="60" height="60" rx="30" fill="#604AFF"/>
<path d="M39.2236 29.9999C42.5616 25.3131 44.2638 20.4692 41.8967 18.1021C39.5296 15.735 34.6857 17.4372 29.9989 20.7752C25.3121 17.4372 20.4682 15.735 18.1011 18.1021C15.734 20.4692 17.4362 25.3131 20.7743 29.9999C17.4362 34.6867 15.734 39.5306 18.1011 41.8977C18.8635 42.6601 19.8819 43 21.0681 43C23.5706 43 26.8207 41.4874 30.0057 39.2246C33.1772 41.4874 36.4272 43 38.9365 43C40.1228 43 41.1424 42.6587 41.9035 41.8977C44.2638 39.5306 42.5616 34.6867 39.2236 29.9999ZM40.3652 19.6337C41.3997 20.6683 40.701 24.0212 37.8572 28.2029C36.9576 27.0892 35.9997 26.0238 34.9877 25.0111C33.9749 24.0005 32.9095 23.044 31.7959 22.1457C35.9776 19.3019 39.3306 18.5977 40.3652 19.6337ZM36.5382 29.9999C35.58 31.2121 34.5508 32.3665 33.4561 33.4571C32.3656 34.5518 31.2111 35.581 29.9989 36.5392C28.7867 35.581 27.6323 34.5518 26.5417 33.4571C25.447 32.3665 24.4179 31.2121 23.4596 29.9999C25.3821 27.5772 27.5763 25.3831 29.9989 23.4606C31.2111 24.4188 32.3656 25.448 33.4561 26.5427C34.5508 27.6333 35.58 28.7877 36.5382 29.9999ZM19.6327 19.6337C19.9306 19.3344 20.4222 19.18 21.0708 19.18C22.6715 19.18 25.2268 20.1144 28.2006 22.1457C27.088 23.0447 26.0231 24.0012 25.0101 25.0111C23.9995 26.0239 23.043 27.0893 22.1447 28.2029C19.3009 24.0212 18.5981 20.6683 19.6327 19.6337ZM19.6327 40.3661C18.5981 39.3315 19.3009 35.9786 22.1447 31.7969C23.0444 32.9106 24.0022 33.976 25.0142 34.9887C26.0263 35.9985 27.0903 36.955 28.2019 37.8541C24.0202 40.6979 20.6673 41.4021 19.6327 40.3661ZM40.3652 40.3661C39.3306 41.4021 35.9776 40.702 31.7959 37.8582C32.909 36.9578 33.9744 36 34.9877 34.9887C35.9983 33.9759 36.9548 32.9105 37.8532 31.7969C40.6969 35.9786 41.3997 39.3315 40.3652 40.3661ZM31.6239 29.9999C31.6239 30.3213 31.5286 30.6355 31.3501 30.9027C31.1715 31.1699 30.9177 31.3782 30.6208 31.5012C30.3239 31.6242 29.9971 31.6564 29.6819 31.5937C29.3667 31.531 29.0771 31.3762 28.8499 31.149C28.6226 30.9217 28.4678 30.6321 28.4051 30.3169C28.3424 30.0017 28.3746 29.675 28.4976 29.378C28.6206 29.0811 28.8289 28.8273 29.0961 28.6488C29.3633 28.4702 29.6775 28.3749 29.9989 28.3749C30.4299 28.3749 30.8432 28.5461 31.148 28.8508C31.4527 29.1556 31.6239 29.5689 31.6239 29.9999Z" fill="white"/>
</svg>
