<svg width="60" height="60" viewBox="0 0 60 60" fill="none" xmlns="http://www.w3.org/2000/svg">
<rect width="60" height="60" rx="30" fill="#604AFF"/>
<path d="M43.0682 22.0455H40.7954V20.9091C40.7954 20.0049 40.4363 19.1378 39.7969 18.4985C39.1576 17.8592 38.2905 17.5 37.3863 17.5H16.9318C16.0276 17.5 15.1605 17.8592 14.5212 18.4985C13.8819 19.1378 13.5227 20.0049 13.5227 20.9091V34.5455C13.5227 35.4496 13.8819 36.3167 14.5212 36.956C15.1605 37.5954 16.0276 37.9545 16.9318 37.9545H32.8409V39.0909C32.8409 39.9951 33.2001 40.8622 33.8394 41.5015C34.4787 42.1408 35.3458 42.5 36.25 42.5H43.0682C43.9723 42.5 44.8394 42.1408 45.4788 41.5015C46.1181 40.8622 46.4773 39.9951 46.4773 39.0909V25.4545C46.4773 24.5504 46.1181 23.6833 45.4788 23.044C44.8394 22.4046 43.9723 22.0455 43.0682 22.0455ZM16.9318 35.6818C16.6304 35.6818 16.3414 35.5621 16.1283 35.349C15.9152 35.1359 15.7954 34.8468 15.7954 34.5455V20.9091C15.7954 20.6077 15.9152 20.3187 16.1283 20.1056C16.3414 19.8925 16.6304 19.7727 16.9318 19.7727H37.3863C37.6877 19.7727 37.9768 19.8925 38.1899 20.1056C38.403 20.3187 38.5227 20.6077 38.5227 20.9091V22.0455H36.25C35.3458 22.0455 34.4787 22.4046 33.8394 23.044C33.2001 23.6833 32.8409 24.5504 32.8409 25.4545V35.6818H16.9318ZM44.2045 39.0909C44.2045 39.3923 44.0848 39.6813 43.8717 39.8944C43.6586 40.1075 43.3695 40.2273 43.0682 40.2273H36.25C35.9486 40.2273 35.6596 40.1075 35.4464 39.8944C35.2333 39.6813 35.1136 39.3923 35.1136 39.0909V25.4545C35.1136 25.1532 35.2333 24.8641 35.4464 24.651C35.6596 24.4379 35.9486 24.3182 36.25 24.3182H43.0682C43.3695 24.3182 43.6586 24.4379 43.8717 24.651C44.0848 24.8641 44.2045 25.1532 44.2045 25.4545V39.0909ZM30.5682 41.3636C30.5682 41.665 30.4484 41.9541 30.2353 42.1672C30.0222 42.3803 29.7332 42.5 29.4318 42.5H23.75C23.4486 42.5 23.1596 42.3803 22.9464 42.1672C22.7333 41.9541 22.6136 41.665 22.6136 41.3636C22.6136 41.0623 22.7333 40.7732 22.9464 40.5601C23.1596 40.347 23.4486 40.2273 23.75 40.2273H29.4318C29.7332 40.2273 30.0222 40.347 30.2353 40.5601C30.4484 40.7732 30.5682 41.0623 30.5682 41.3636ZM41.9318 27.7273C41.9318 28.0287 41.8121 28.3177 41.599 28.5308C41.3859 28.7439 41.0968 28.8636 40.7954 28.8636H38.5227C38.2213 28.8636 37.9323 28.7439 37.7192 28.5308C37.5061 28.3177 37.3863 28.0287 37.3863 27.7273C37.3863 27.4259 37.5061 27.1369 37.7192 26.9237C37.9323 26.7106 38.2213 26.5909 38.5227 26.5909H40.7954C41.0968 26.5909 41.3859 26.7106 41.599 26.9237C41.8121 27.1369 41.9318 27.4259 41.9318 27.7273Z" fill="white"/>
</svg>
