<svg width="60" height="60" viewBox="0 0 60 60" fill="none" xmlns="http://www.w3.org/2000/svg">
<rect width="60" height="60" rx="30" fill="#604AFF"/>
<path d="M43.5652 40.7391H42.4348V18.1304C42.4348 17.8306 42.3157 17.5431 42.1037 17.3311C41.8917 17.1191 41.6041 17 41.3043 17H33.3913C33.0915 17 32.8039 17.1191 32.5919 17.3311C32.3799 17.5431 32.2608 17.8306 32.2608 18.1304V23.7826H25.4782C25.1784 23.7826 24.8909 23.9017 24.6789 24.1137C24.4669 24.3257 24.3478 24.6132 24.3478 24.913V30.5652H18.6956C18.3958 30.5652 18.1083 30.6843 17.8963 30.8963C17.6843 31.1083 17.5652 31.3958 17.5652 31.6957V40.7391H16.4348C16.1349 40.7391 15.8474 40.8582 15.6354 41.0702C15.4234 41.2822 15.3043 41.5698 15.3043 41.8696C15.3043 42.1694 15.4234 42.4569 15.6354 42.6689C15.8474 42.8809 16.1349 43 16.4348 43H43.5652C43.865 43 44.1525 42.8809 44.3645 42.6689C44.5765 42.4569 44.6956 42.1694 44.6956 41.8696C44.6956 41.5698 44.5765 41.2822 44.3645 41.0702C44.1525 40.8582 43.865 40.7391 43.5652 40.7391ZM34.5217 19.2609H40.1739V40.7391H34.5217V19.2609ZM26.6087 26.0435H32.2608V40.7391H26.6087V26.0435ZM19.8261 32.8261H24.3478V40.7391H19.8261V32.8261Z" fill="white"/>
</svg>
