<svg width="19" height="22" viewBox="0 0 19 22" fill="none" xmlns="http://www.w3.org/2000/svg">
<path d="M18.7052 14.9777C18.8007 15.1435 18.8266 15.3403 18.7773 15.5252C18.728 15.71 18.6075 15.8678 18.4421 15.964L9.76346 21.0265C9.65288 21.091 9.52715 21.125 9.39914 21.125C9.27112 21.125 9.1454 21.091 9.03482 21.0265L0.356186 15.964C0.193185 15.866 0.0753216 15.7078 0.0281152 15.5236C-0.0190911 15.3394 0.00815819 15.144 0.103963 14.9797C0.199768 14.8155 0.356419 14.6955 0.539999 14.6459C0.72358 14.5963 0.919316 14.621 1.08483 14.7146L9.40185 19.5647L17.7189 14.7146C17.8846 14.6191 18.0815 14.5932 18.2664 14.6425C18.4512 14.6918 18.609 14.8123 18.7052 14.9777ZM17.7189 10.3753L9.40185 15.2254L1.08483 10.3753C0.920156 10.2933 0.730428 10.2772 0.554262 10.3301C0.378096 10.3831 0.228733 10.5012 0.136574 10.6604C0.0444143 10.8196 0.0163859 11.008 0.0581929 11.1871C0.0999998 11.3662 0.2085 11.5227 0.36161 11.6247L9.04024 16.6872C9.15083 16.7517 9.27655 16.7857 9.40456 16.7857C9.53258 16.7857 9.6583 16.7517 9.76889 16.6872L18.4475 11.6247C18.5309 11.5775 18.604 11.5143 18.6627 11.4386C18.7215 11.3629 18.7646 11.2764 18.7896 11.1839C18.8145 11.0915 18.8209 10.995 18.8083 10.9C18.7957 10.8051 18.7644 10.7136 18.7161 10.6309C18.6679 10.5481 18.6037 10.4758 18.5272 10.4181C18.4508 10.3604 18.3637 10.3184 18.2709 10.2946C18.1781 10.2709 18.0816 10.2658 17.9868 10.2796C17.892 10.2935 17.801 10.326 17.7189 10.3753ZM0 6.66068C0.000288421 6.53401 0.0338424 6.40964 0.0973037 6.30001C0.160765 6.19038 0.251908 6.09934 0.36161 6.036L9.04024 0.973467C9.15083 0.908979 9.27655 0.875 9.40456 0.875C9.53258 0.875 9.6583 0.908979 9.76889 0.973467L18.4475 6.036C18.5567 6.0997 18.6473 6.19089 18.7102 6.30049C18.7732 6.4101 18.8063 6.53429 18.8063 6.66068C18.8063 6.78708 18.7732 6.91127 18.7102 7.02087C18.6473 7.13048 18.5567 7.22167 18.4475 7.28536L9.76889 12.3479C9.6583 12.4124 9.53258 12.4464 9.40456 12.4464C9.27655 12.4464 9.15083 12.4124 9.04024 12.3479L0.36161 7.28536C0.251908 7.22203 0.160765 7.13099 0.0973037 7.02136C0.0338424 6.91173 0.000288421 6.78736 0 6.66068ZM2.15881 6.66068L9.40185 10.8861L16.6449 6.66068L9.40185 2.43527L2.15881 6.66068Z" fill="#604AFF"/>
</svg>
