<svg width="30" height="22" viewBox="0 0 30 22" fill="none" xmlns="http://www.w3.org/2000/svg">
<path d="M29.2609 7.76787L26.3244 1.89248C26.2162 1.67622 26.0665 1.4834 25.8838 1.32502C25.7011 1.16663 25.489 1.04579 25.2595 0.969387C25.0301 0.892987 24.7879 0.862526 24.5467 0.879745C24.3055 0.896963 24.0701 0.961523 23.8539 1.06974L20.9921 2.50004L14.9637 0.90519C14.809 0.864937 14.6466 0.864937 14.4919 0.90519L8.46348 2.50004L5.60173 1.06974C5.38549 0.961523 5.15006 0.896963 4.90887 0.879745C4.66769 0.862526 4.42547 0.892987 4.19605 0.969387C3.96664 1.04579 3.75452 1.16663 3.57182 1.32502C3.38911 1.4834 3.23939 1.67622 3.13121 1.89248L0.194667 7.76672C0.086452 7.98295 0.0218921 8.21838 0.00467381 8.45957C-0.0125445 8.70076 0.0179162 8.94297 0.0943163 9.17239C0.170716 9.4018 0.291559 9.61392 0.449944 9.79663C0.608329 9.97933 0.801153 10.1291 1.01741 10.2372L4.12425 11.7918L10.5094 16.352C10.6035 16.4189 10.7092 16.4677 10.8212 16.4958L18.1856 18.3369C18.3398 18.3756 18.5014 18.3736 18.6547 18.3313C18.808 18.2889 18.9476 18.2076 19.0601 18.0952L25.3969 11.7573L28.437 10.2372C28.8735 10.0188 29.2053 9.63591 29.3596 9.17286C29.5139 8.70981 29.478 8.20445 29.2598 7.76787H29.2609ZM22.9448 11.6077L18.9853 8.43641C18.8079 8.29436 18.5843 8.22294 18.3574 8.2359C18.1305 8.24885 17.9165 8.34528 17.7564 8.5066C15.707 10.5709 13.4229 10.3097 11.9662 9.38918L16.9417 4.55631H20.602L23.733 10.8172L22.9448 11.6077ZM4.77784 2.71522L7.13329 3.89121L4.19099 9.76545L1.84014 8.5906L4.77784 2.71522ZM18.1258 16.4233L11.4391 14.7525L5.77778 10.709L8.9997 4.26519L14.7278 2.74743L15.8555 3.04546L10.6774 8.07165L10.6682 8.082C10.4733 8.27692 10.3246 8.51312 10.2332 8.77317C10.1417 9.03322 10.1099 9.31048 10.1399 9.5845C10.1699 9.85851 10.2611 10.1223 10.4067 10.3563C10.5523 10.5904 10.7487 10.7888 10.9812 10.9368C13.347 12.4477 16.2018 12.2026 18.4503 10.3615L21.6319 12.9172L18.1258 16.4233ZM25.26 9.7643L22.3235 3.89582L24.6778 2.71522L27.6155 8.5906L25.26 9.7643ZM15.1628 20.4277C15.113 20.6266 14.9983 20.8033 14.8367 20.9296C14.6752 21.056 14.4761 21.1247 14.271 21.125C14.1953 21.1249 14.12 21.1156 14.0466 21.0974L9.2517 19.8984C9.13955 19.8707 9.03371 19.8219 8.93986 19.7545L5.90781 17.5889C5.72138 17.4426 5.59859 17.2299 5.56503 16.9953C5.53146 16.7606 5.58969 16.5221 5.7276 16.3293C5.86552 16.1365 6.07247 16.0044 6.30538 15.9604C6.53829 15.9164 6.7792 15.9639 6.97795 16.0931L9.86731 18.1574L14.4977 19.3127C14.7345 19.3719 14.938 19.5228 15.0636 19.7321C15.1892 19.9414 15.2265 20.192 15.1674 20.4288L15.1628 20.4277Z" fill="#604AFF"/>
</svg>
