<svg width="18" height="22" viewBox="0 0 18 22" fill="none" xmlns="http://www.w3.org/2000/svg">
<path d="M10.8471 20.4018C10.8471 20.5936 10.7709 20.7776 10.6353 20.9132C10.4997 21.0488 10.3157 21.125 10.1239 21.125H7.23125C7.03945 21.125 6.85551 21.0488 6.71988 20.9132C6.58426 20.7776 6.50807 20.5936 6.50807 20.4018C6.50807 20.21 6.58426 20.0261 6.71988 19.8905C6.85551 19.7548 7.03945 19.6787 7.23125 19.6787H10.1239C10.3157 19.6787 10.4997 19.7548 10.6353 19.8905C10.7709 20.0261 10.8471 20.21 10.8471 20.4018ZM8.67759 10.2774C8.89214 10.2774 9.10187 10.2138 9.28025 10.0946C9.45864 9.97538 9.59768 9.80596 9.67978 9.60775C9.76188 9.40954 9.78337 9.19143 9.74151 8.981C9.69966 8.77058 9.59634 8.57729 9.44463 8.42559C9.29293 8.27388 9.09964 8.17057 8.88922 8.12871C8.6788 8.08686 8.46069 8.10834 8.26247 8.19044C8.06426 8.27254 7.89484 8.41158 7.77565 8.58997C7.65645 8.76836 7.59283 8.97808 7.59283 9.19263C7.59283 9.48033 7.70712 9.75624 7.91055 9.95967C8.11398 10.1631 8.3899 10.2774 8.67759 10.2774ZM17.3213 14.2395L16.204 19.2683C16.151 19.5071 16.0383 19.7285 15.8764 19.9119C15.7146 20.0953 15.5088 20.2347 15.2785 20.3169C15.0481 20.3992 14.8006 20.4217 14.5592 20.3823C14.3178 20.3429 14.0903 20.243 13.898 20.0918L11.4356 18.2323H5.9214L3.45718 20.0918C3.26489 20.243 3.0374 20.3429 2.79598 20.3823C2.55455 20.4217 2.30708 20.3992 2.07671 20.3169C1.84635 20.2347 1.64061 20.0953 1.47874 19.9119C1.31687 19.7285 1.20417 19.5071 1.15116 19.2683L0.0338554 14.2395C-0.0135384 14.0237 -0.0111439 13.7999 0.0408576 13.5852C0.0928591 13.3704 0.193101 13.1704 0.333973 13.0001L2.9157 9.90315C3.00236 8.765 3.26365 7.64696 3.6904 6.5883C4.85652 3.66487 6.94469 1.83072 7.7917 1.17805C8.04523 0.981606 8.35686 0.875 8.67759 0.875C8.99832 0.875 9.30995 0.981606 9.56348 1.17805C10.4078 1.83072 12.4987 3.66487 13.6648 6.5883C14.0915 7.64696 14.3528 8.765 14.4395 9.90315L17.0212 13.0001C17.1621 13.1704 17.2623 13.3704 17.3143 13.5852C17.3663 13.7999 17.3687 14.0237 17.3213 14.2395ZM6.09496 16.786H11.2602C13.1694 13.3925 13.5265 10.1436 12.3215 7.12435C11.2584 4.45946 9.26427 2.77446 8.67759 2.32248C8.08911 2.77446 6.09496 4.45946 5.03189 7.12435C3.82871 10.1436 4.18578 13.3925 6.09496 16.786ZM4.73901 17.3148C3.76573 15.546 3.17514 13.8077 2.96723 12.0998L1.44585 13.9258L2.56316 18.9555L2.57943 18.9437L4.73901 17.3148ZM15.9093 13.9258L14.388 12.0998C14.1819 13.8041 13.5925 15.5424 12.6198 17.3148L14.7758 18.9419L14.792 18.9537L15.9093 13.9258Z" fill="#604AFF"/>
</svg>
