<svg width="29" height="22" viewBox="0 0 29 22" fill="none" xmlns="http://www.w3.org/2000/svg">
<path d="M27.9159 12.6369C27.8194 12.7093 27.7095 12.762 27.5926 12.7919C27.4757 12.8219 27.354 12.8285 27.2346 12.8115C27.1151 12.7944 27.0002 12.754 26.8963 12.6925C26.7925 12.631 26.7017 12.5497 26.6293 12.4531C26.0754 11.7086 25.3545 11.1045 24.5245 10.6895C23.6945 10.2745 22.7786 10.0602 21.8507 10.0638C21.67 10.0638 21.4933 10.0105 21.3427 9.91054C21.1921 9.81063 21.0743 9.66854 21.0041 9.50204C20.9564 9.38898 20.9318 9.26751 20.9318 9.14479C20.9318 9.02208 20.9564 8.9006 21.0041 8.78754C21.0743 8.62104 21.1921 8.47895 21.3427 8.37904C21.4933 8.27913 21.67 8.22583 21.8507 8.22582C22.3663 8.22577 22.8716 8.08112 23.3091 7.8083C23.7467 7.53549 24.0989 7.14543 24.3259 6.68244C24.5529 6.21946 24.6454 5.7021 24.5931 5.18913C24.5408 4.67616 24.3457 4.18815 24.0299 3.78053C23.7141 3.3729 23.2904 3.062 22.8067 2.88314C22.3231 2.70428 21.7991 2.66463 21.294 2.76869C20.789 2.87275 20.3233 3.11635 19.9498 3.47183C19.5763 3.8273 19.3099 4.2804 19.181 4.77966C19.1509 4.89657 19.098 5.00639 19.0254 5.10285C18.9527 5.19932 18.8618 5.28054 18.7578 5.34187C18.6538 5.40321 18.5388 5.44346 18.4192 5.46032C18.2997 5.47719 18.1779 5.47034 18.061 5.44017C17.9441 5.41 17.8343 5.3571 17.7378 5.28448C17.6414 5.21187 17.5602 5.12097 17.4988 5.01697C17.4375 4.91296 17.3972 4.7979 17.3804 4.67834C17.3635 4.55879 17.3704 4.43708 17.4005 4.32017C17.5794 3.62785 17.9175 2.98685 18.3877 2.44816C18.858 1.90947 19.4474 1.48797 20.1093 1.21719C20.7711 0.94641 21.4869 0.833828 22.1999 0.888402C22.9129 0.942976 23.6033 1.1632 24.2162 1.53155C24.8291 1.8999 25.3475 2.40621 25.7303 3.01019C26.1131 3.61417 26.3496 4.29915 26.4211 5.01064C26.4926 5.72212 26.397 6.44046 26.142 7.10851C25.887 7.77656 25.4796 8.37587 24.9522 8.85876C26.2018 9.3998 27.2881 10.2584 28.1031 11.3492C28.1756 11.446 28.2282 11.5561 28.2579 11.6733C28.2877 11.7904 28.2941 11.9123 28.2767 12.0319C28.2593 12.1515 28.2185 12.2665 28.1566 12.3703C28.0947 12.4742 28.0129 12.5647 27.9159 12.6369ZM21.7266 19.713C21.7931 19.8176 21.8377 19.9346 21.8579 20.0569C21.878 20.1792 21.8731 20.3043 21.8437 20.4247C21.8142 20.545 21.7606 20.6582 21.6863 20.7574C21.6119 20.8565 21.5183 20.9396 21.411 21.0016C21.3037 21.0637 21.1849 21.1033 21.0619 21.1183C20.9388 21.1332 20.8141 21.1231 20.695 21.0886C20.576 21.0541 20.4652 20.9958 20.3692 20.9174C20.2733 20.8389 20.1942 20.7418 20.1368 20.632C19.5579 19.6518 18.7334 18.8394 17.7447 18.275C16.756 17.7107 15.6373 17.4139 14.4989 17.4139C13.3604 17.4139 12.2417 17.7107 11.253 18.275C10.2643 18.8394 9.43984 19.6518 8.86094 20.632C8.80349 20.7418 8.72442 20.8389 8.62848 20.9174C8.53255 20.9958 8.42173 21.0541 8.30269 21.0886C8.18366 21.1231 8.05887 21.1332 7.93583 21.1183C7.8128 21.1033 7.69406 21.0637 7.58675 21.0016C7.47945 20.9396 7.3858 20.8565 7.31144 20.7574C7.23708 20.6582 7.18355 20.545 7.15406 20.4247C7.12457 20.3043 7.11974 20.1792 7.13986 20.0569C7.15997 19.9346 7.20462 19.8176 7.27111 19.713C8.16205 18.1822 9.52053 16.9775 11.1469 16.276C10.2317 15.5754 9.55916 14.6055 9.2237 13.5028C8.88825 12.4002 8.90677 11.2201 9.27668 10.1284C9.64658 9.03683 10.3493 8.08858 11.286 7.41698C12.2227 6.74537 13.3463 6.38418 14.4989 6.38418C15.6514 6.38418 16.7751 6.74537 17.7117 7.41698C18.6484 8.08858 19.3511 9.03683 19.721 10.1284C20.0909 11.2201 20.1095 12.4002 19.774 13.5028C19.4385 14.6055 18.766 15.5754 17.8508 16.276C19.4772 16.9775 20.8357 18.1822 21.7266 19.713ZM14.4989 15.5776C15.2259 15.5776 15.9366 15.362 16.5411 14.9581C17.1456 14.5542 17.6167 13.9801 17.8949 13.3084C18.1732 12.6367 18.246 11.8976 18.1041 11.1846C17.9623 10.4715 17.6122 9.81655 17.0981 9.30246C16.584 8.78838 15.929 8.43828 15.216 8.29645C14.5029 8.15461 13.7638 8.22741 13.0921 8.50563C12.4205 8.78385 11.8464 9.255 11.4425 9.8595C11.0385 10.464 10.823 11.1747 10.823 11.9017C10.823 12.8766 11.2102 13.8116 11.8996 14.501C12.589 15.1903 13.5239 15.5776 14.4989 15.5776ZM8.06602 9.14479C8.06602 8.90106 7.9692 8.66732 7.79686 8.49498C7.62452 8.32264 7.39078 8.22582 7.14705 8.22582C6.63142 8.22577 6.12614 8.08112 5.6886 7.8083C5.25106 7.53549 4.89879 7.14543 4.67182 6.68244C4.44485 6.21946 4.35227 5.7021 4.40459 5.18913C4.45691 4.67616 4.65205 4.18815 4.96782 3.78053C5.28359 3.3729 5.70735 3.062 6.19097 2.88314C6.67458 2.70428 7.19866 2.66463 7.70368 2.76869C8.2087 2.87275 8.67441 3.11635 9.04792 3.47183C9.42143 3.8273 9.68777 4.2804 9.81667 4.77966C9.87761 5.01577 10.0298 5.218 10.2399 5.34187C10.4499 5.46574 10.7006 5.5011 10.9367 5.44017C11.1728 5.37924 11.375 5.22701 11.4989 5.01697C11.6228 4.80693 11.6581 4.55628 11.5972 4.32017C11.4183 3.62785 11.0802 2.98685 10.61 2.44816C10.1397 1.90947 9.55027 1.48797 8.88845 1.21719C8.22664 0.94641 7.51077 0.833828 6.79779 0.888402C6.08481 0.942976 5.39441 1.1632 4.78152 1.53155C4.16863 1.8999 3.65017 2.40621 3.26738 3.01019C2.8846 3.61417 2.64807 4.29915 2.5766 5.01064C2.50513 5.72212 2.6007 6.44046 2.85571 7.10851C3.11072 7.77656 3.51812 8.37587 4.0455 8.85876C2.79717 9.40032 1.71212 10.2588 0.898011 11.3492C0.751622 11.5442 0.688685 11.7893 0.723046 12.0307C0.757406 12.2721 0.88625 12.4899 1.08123 12.6363C1.27621 12.7827 1.52136 12.8457 1.76275 12.8113C2.00413 12.7769 2.22198 12.6481 2.36837 12.4531C2.92227 11.7086 3.64324 11.1045 4.47324 10.6895C5.30324 10.2745 6.21909 10.0602 7.14705 10.0638C7.39078 10.0638 7.62452 9.96695 7.79686 9.79461C7.9692 9.62226 8.06602 9.38852 8.06602 9.14479Z" fill="#604AFF"/>
</svg>
