<svg width="22" height="22" viewBox="0 0 22 22" fill="none" xmlns="http://www.w3.org/2000/svg">
<path d="M21.0665 5.76363C20.9928 5.53375 20.8522 5.3311 20.6626 5.18164C20.4731 5.03218 20.2432 4.94271 20.0025 4.92471L16.6631 4.66074L15.3785 1.61783C15.2846 1.39748 15.1281 1.20957 14.9283 1.07749C14.7285 0.945418 14.4943 0.875 14.2548 0.875C14.0153 0.875 13.7811 0.945418 13.5813 1.07749C13.3815 1.20957 13.2249 1.39748 13.1311 1.61783L11.8465 4.66074L8.50707 4.92471C8.26727 4.94238 8.03816 5.03106 7.84897 5.17946C7.65977 5.32785 7.51905 5.52923 7.44476 5.75792C7.37048 5.98661 7.36598 6.23224 7.43184 6.46349C7.49771 6.69475 7.63096 6.90114 7.8146 7.05637L10.3513 9.19707L9.57742 12.3964C9.52113 12.6281 9.5349 12.8713 9.61698 13.0951C9.69906 13.319 9.84575 13.5134 10.0385 13.6538C10.233 13.7972 10.4656 13.8797 10.707 13.8908C10.9484 13.9019 11.1876 13.8411 11.3945 13.7162L14.2548 11.9941L17.116 13.7171C17.3229 13.8417 17.5621 13.9022 17.8034 13.8911C18.0447 13.88 18.2773 13.7978 18.472 13.6547C18.6644 13.5141 18.8107 13.3195 18.8926 13.0957C18.9745 12.8719 18.9883 12.6289 18.9321 12.3973L18.1583 9.19797L20.695 7.05727C20.8787 6.90314 21.0122 6.69768 21.0783 6.46721C21.1445 6.23673 21.1404 5.99175 21.0665 5.76363ZM16.8836 8.37803C16.781 8.46476 16.7046 8.57837 16.6629 8.70611C16.6212 8.83385 16.616 8.97068 16.6477 9.10124L17.3962 12.1939L14.6281 10.5296C14.5155 10.4618 14.3866 10.426 14.2552 10.426C14.1238 10.426 13.9949 10.4618 13.8823 10.5296L11.1142 12.1957L11.8628 9.10124C11.8944 8.97059 11.889 8.83371 11.8472 8.70596C11.8053 8.57822 11.7287 8.46466 11.6259 8.37803L9.19231 6.32231L12.4034 6.06828C12.5355 6.05779 12.6622 6.01118 12.7697 5.93354C12.8772 5.8559 12.9612 5.75021 13.0127 5.62803L14.2548 2.67462L15.5014 5.62803C15.5529 5.75021 15.6369 5.8559 15.7444 5.93354C15.8518 6.01118 15.9786 6.05779 16.1107 6.06828L19.3227 6.32231L16.8836 8.37803ZM7.39152 10.5639L2.11028 15.8506C1.97458 15.9863 1.79053 16.0625 1.59861 16.0625C1.4067 16.0625 1.22264 15.9863 1.08694 15.8506C0.951237 15.7149 0.875 15.5308 0.875 15.3389C0.875 15.147 0.951237 14.963 1.08694 14.8273L6.37089 9.5433C6.50659 9.4076 6.69065 9.33136 6.88256 9.33136C7.07447 9.33136 7.25853 9.4076 7.39423 9.5433C7.52993 9.67901 7.60617 9.86306 7.60617 10.055C7.60617 10.2469 7.52993 10.4309 7.39423 10.5666L7.39152 10.5639ZM8.36876 15.0722C8.50428 15.2079 8.58041 15.3917 8.58041 15.5835C8.58041 15.7752 8.50428 15.9591 8.36876 16.0947L3.5567 20.9131C3.48951 20.9803 3.40974 21.0336 3.32194 21.0699C3.23415 21.1063 3.14006 21.125 3.04503 21.125C2.95 21.125 2.85591 21.1063 2.76812 21.0699C2.68032 21.0336 2.60055 20.9803 2.53336 20.9131C2.46617 20.8459 2.41287 20.7661 2.3765 20.6783C2.34014 20.5905 2.32142 20.4964 2.32142 20.4014C2.32142 20.3064 2.34014 20.2123 2.3765 20.1245C2.41287 20.0367 2.46617 19.9569 2.53336 19.8897L7.34903 15.075C7.48464 14.9394 7.66852 14.8633 7.86025 14.8633C8.05197 14.8633 8.23585 14.9394 8.37147 15.075L8.36876 15.0722ZM14.968 14.9818C15.0353 15.049 15.0886 15.1288 15.125 15.2166C15.1614 15.3044 15.1802 15.3985 15.1802 15.4935C15.1802 15.5885 15.1614 15.6827 15.125 15.7705C15.0886 15.8583 15.0353 15.938 14.968 16.0052L10.0611 20.9122C9.92536 21.0479 9.74131 21.1241 9.54939 21.1241C9.35748 21.1241 9.17343 21.0479 9.03772 20.9122C8.90202 20.7764 8.82578 20.5924 8.82578 20.4005C8.82578 20.2086 8.90202 20.0245 9.03772 19.8888L13.9456 14.9818C14.0129 14.9141 14.0929 14.8604 14.1811 14.8237C14.2693 14.7871 14.3638 14.7683 14.4593 14.7684C14.5547 14.7684 14.6493 14.7874 14.7374 14.8242C14.8254 14.861 14.9054 14.9149 14.9726 14.9827L14.968 14.9818Z" fill="#604AFF"/>
</svg>
