<svg width="25" height="21" viewBox="0 0 25 21" fill="none" xmlns="http://www.w3.org/2000/svg">
<path d="M24.3112 10.8164C24.3101 9.74303 24.0051 8.6919 23.4315 7.78466C22.8579 6.87742 22.039 6.15116 21.0698 5.68994V5.54914C21.0689 4.50503 20.7319 3.48895 20.1086 2.65125C19.4854 1.81355 18.609 1.19873 17.6092 0.897771C16.6094 0.596809 15.5393 0.62569 14.5572 0.980141C13.5751 1.33459 12.7331 1.99578 12.156 2.86588C11.5788 1.99578 10.7369 1.33459 9.75479 0.980141C8.77268 0.62569 7.70256 0.596809 6.70276 0.897771C5.70296 1.19873 4.8266 1.81355 4.20336 2.65125C3.58011 3.48895 3.24309 4.50503 3.24215 5.54914V5.68994C2.2721 6.1499 1.45249 6.8757 0.878577 7.78299C0.304661 8.69029 0 9.74182 0 10.8154C0 11.889 0.304661 12.9405 0.878577 13.8478C1.45249 14.7551 2.2721 15.4809 3.24215 15.9408V16.0837C3.24309 17.1278 3.58011 18.1439 4.20336 18.9816C4.8266 19.8193 5.70296 20.4341 6.70276 20.735C7.70256 21.036 8.77268 21.0071 9.75479 20.6527C10.7369 20.2982 11.5788 19.637 12.156 18.7669C12.7331 19.637 13.5751 20.2982 14.5572 20.6527C15.5393 21.0071 16.6094 21.036 17.6092 20.735C18.609 20.4341 19.4854 19.8193 20.1086 18.9816C20.7319 18.1439 21.0689 17.1278 21.0698 16.0837V15.9408C22.0389 15.48 22.8576 14.7541 23.4313 13.8472C24.0049 12.9403 24.31 11.8895 24.3112 10.8164ZM8.10424 19.3251C7.30498 19.3249 6.53394 19.0295 5.93922 18.4956C5.34449 17.9616 4.96801 17.2267 4.88209 16.4321C5.14414 16.4695 5.40849 16.4885 5.6732 16.4888H6.48354C6.69846 16.4888 6.90458 16.4035 7.05655 16.2515C7.20852 16.0995 7.29389 15.8934 7.29389 15.6785C7.29389 15.4636 7.20852 15.2575 7.05655 15.1055C6.90458 14.9535 6.69846 14.8681 6.48354 14.8681H5.6732C4.71654 14.8693 3.79034 14.5318 3.05859 13.9156C2.32683 13.2994 1.83672 12.4441 1.67502 11.5012C1.51332 10.5584 1.69047 9.58866 2.1751 8.76384C2.65973 7.93902 3.42059 7.31229 4.32295 6.9946C4.48084 6.9387 4.61753 6.83525 4.71421 6.69848C4.81089 6.56171 4.86282 6.39834 4.86285 6.23085V5.54914C4.86285 4.68947 5.20435 3.86501 5.81223 3.25713C6.42011 2.64925 7.24457 2.30775 8.10424 2.30775C8.96391 2.30775 9.78837 2.64925 10.3963 3.25713C11.0041 3.86501 11.3456 4.68947 11.3456 5.54914V12.4634C10.4558 11.6631 9.30105 11.2207 8.10424 11.2216C7.88932 11.2216 7.68321 11.307 7.53124 11.4589C7.37927 11.6109 7.29389 11.817 7.29389 12.0319C7.29389 12.2468 7.37927 12.453 7.53124 12.6049C7.68321 12.7569 7.88932 12.8423 8.10424 12.8423C8.96391 12.8423 9.78837 13.1838 10.3963 13.7917C11.0041 14.3995 11.3456 15.224 11.3456 16.0837C11.3456 16.9433 11.0041 17.7678 10.3963 18.3757C9.78837 18.9836 8.96391 19.3251 8.10424 19.3251ZM18.6388 14.8681H17.8284C17.6135 14.8681 17.4074 14.9535 17.2554 15.1055C17.1034 15.2575 17.0181 15.4636 17.0181 15.6785C17.0181 15.8934 17.1034 16.0995 17.2554 16.2515C17.4074 16.4035 17.6135 16.4888 17.8284 16.4888H18.6388C18.9035 16.4885 19.1678 16.4695 19.4299 16.4321C19.3625 17.0547 19.1163 17.6445 18.7209 18.1302C18.3255 18.6158 17.7979 18.9765 17.2019 19.1687C16.6058 19.3609 15.9669 19.3762 15.3623 19.213C14.7577 19.0497 14.2134 18.7149 13.795 18.2488C13.3767 17.7828 13.1024 17.2055 13.0052 16.5869C12.9079 15.9682 12.992 15.3346 13.2472 14.7627C13.5024 14.1909 13.9178 13.7051 14.4432 13.3643C14.9686 13.0235 15.5815 12.8422 16.2077 12.8423C16.4226 12.8423 16.6288 12.7569 16.7807 12.6049C16.9327 12.453 17.0181 12.2468 17.0181 12.0319C17.0181 11.817 16.9327 11.6109 16.7807 11.4589C16.6288 11.307 16.4226 11.2216 16.2077 11.2216C15.0109 11.2207 13.8562 11.6631 12.9663 12.4634V5.54914C12.9663 4.68947 13.3078 3.86501 13.9157 3.25713C14.5236 2.64925 15.3481 2.30775 16.2077 2.30775C17.0674 2.30775 17.8919 2.64925 18.4997 3.25713C19.1076 3.86501 19.4491 4.68947 19.4491 5.54914V6.23085C19.4491 6.39834 19.5011 6.56171 19.5977 6.69848C19.6944 6.83525 19.8311 6.9387 19.989 6.9946C20.8914 7.31229 21.6522 7.93902 22.1369 8.76384C22.6215 9.58866 22.7986 10.5584 22.6369 11.5012C22.4752 12.4441 21.9851 13.2994 21.2534 13.9156C20.5216 14.5318 19.5954 14.8693 18.6388 14.8681ZM20.2595 9.60088C20.2595 9.8158 20.1741 10.0219 20.0221 10.1739C19.8701 10.3259 19.664 10.4112 19.4491 10.4112H19.0439C18.0768 10.4112 17.1493 10.027 16.4654 9.34318C15.7816 8.65931 15.3974 7.73179 15.3974 6.76467V6.35949C15.3974 6.14457 15.4827 5.93846 15.6347 5.78649C15.7867 5.63452 15.9928 5.54914 16.2077 5.54914C16.4226 5.54914 16.6288 5.63452 16.7807 5.78649C16.9327 5.93846 17.0181 6.14457 17.0181 6.35949V6.76467C17.0181 7.30196 17.2315 7.81725 17.6114 8.19717C17.9914 8.5771 18.5066 8.79053 19.0439 8.79053H19.4491C19.664 8.79053 19.8701 8.87591 20.0221 9.02788C20.1741 9.17985 20.2595 9.38597 20.2595 9.60088ZM5.26802 10.4112H4.86285C4.64793 10.4112 4.44182 10.3259 4.28985 10.1739C4.13788 10.0219 4.0525 9.8158 4.0525 9.60088C4.0525 9.38597 4.13788 9.17985 4.28985 9.02788C4.44182 8.87591 4.64793 8.79053 4.86285 8.79053H5.26802C5.80532 8.79053 6.3206 8.5771 6.70053 8.19717C7.08045 7.81725 7.29389 7.30196 7.29389 6.76467V6.35949C7.29389 6.14457 7.37927 5.93846 7.53124 5.78649C7.68321 5.63452 7.88932 5.54914 8.10424 5.54914C8.31916 5.54914 8.52527 5.63452 8.67724 5.78649C8.82921 5.93846 8.91459 6.14457 8.91459 6.35949V6.76467C8.91459 7.73179 8.5304 8.65931 7.84653 9.34318C7.16267 10.027 6.23515 10.4112 5.26802 10.4112Z" fill="#604AFF"/>
</svg>
