<svg width="21" height="22" viewBox="0 0 21 22" fill="none" xmlns="http://www.w3.org/2000/svg">
<path d="M10.1263 0.875C9.91974 0.875 9.72164 0.957057 9.57558 1.10312C9.42952 1.24918 9.34746 1.44728 9.34746 1.65385V7.10577C9.34746 7.31233 9.42952 7.51043 9.57558 7.65649C9.72164 7.80255 9.91974 7.88461 10.1263 7.88461C10.8121 7.88477 11.4786 8.11119 12.0226 8.52877C12.5666 8.94635 12.9576 9.53174 13.135 10.1942C13.3124 10.8566 13.2662 11.5591 13.0037 12.1926C12.7412 12.8261 12.2769 13.3554 11.683 13.6982C11.0891 14.041 10.3986 14.1783 9.71871 14.0887C9.03881 13.9991 8.40746 13.6877 7.92258 13.2028C7.43769 12.7178 7.12636 12.0865 7.03687 11.4065C6.94737 10.7266 7.08472 10.0362 7.42761 9.4423C7.47877 9.35371 7.51197 9.2559 7.52532 9.15447C7.53868 9.05304 7.53191 8.94998 7.50542 8.85116C7.47893 8.75234 7.43324 8.65971 7.37094 8.57856C7.30864 8.49741 7.23097 8.42933 7.14236 8.3782L2.4206 5.65224C2.33201 5.60108 2.2342 5.56788 2.13277 5.55453C2.03134 5.54118 1.92828 5.54794 1.82946 5.57443C1.73065 5.60092 1.63802 5.64662 1.55686 5.70891C1.47571 5.77121 1.40763 5.84888 1.35651 5.9375C0.242105 7.8677 -0.204268 10.1117 0.0866138 12.3214C0.377495 14.5311 1.38938 16.5832 2.96533 18.1592C4.54128 19.7353 6.59323 20.7473 8.80295 21.0383C11.0127 21.3293 13.2567 20.8831 15.1869 19.7688C17.1172 18.6545 18.6259 16.9345 19.479 14.8754C20.3321 12.8163 20.4819 10.5333 19.9053 8.38039C19.3286 6.22748 18.0577 4.325 16.2896 2.96799C14.5215 1.61098 12.3551 0.875286 10.1263 0.875ZM2.34661 7.40757L5.7453 9.37026C5.5519 9.89184 5.453 10.4437 5.45323 11C5.45323 11.1489 5.46102 11.2921 5.47465 11.44L1.68362 12.4603C1.38798 10.7478 1.61917 8.98586 2.34661 7.40757ZM2.08667 13.9606L5.88355 12.9442C6.20099 13.6362 6.68235 14.2403 7.28594 14.7043C7.88953 15.1682 8.59713 15.478 9.34746 15.6069V19.5313C7.73508 19.3818 6.19783 18.7795 4.9131 17.7938C3.62837 16.8081 2.64853 15.4793 2.08667 13.9606ZM10.9052 19.5313V15.6069C11.9936 15.4224 12.9816 14.8585 13.694 14.0152C14.4064 13.1718 14.7973 12.1035 14.7973 10.9995C14.7973 9.89553 14.4064 8.8272 13.694 7.98386C12.9816 7.14052 11.9936 6.57664 10.9052 6.39215V2.46774C13.0335 2.6622 15.0124 3.64516 16.4533 5.22367C17.8941 6.80219 18.693 8.86226 18.693 10.9995C18.693 13.1368 17.8941 15.1968 16.4533 16.7753C15.0124 18.3539 13.0335 19.3368 10.9052 19.5313Z" fill="#604AFF"/>
</svg>
