<svg width="21" height="22" viewBox="0 0 21 22" fill="none" xmlns="http://www.w3.org/2000/svg">
<path d="M7.82506 5.05906C7.64891 4.88337 7.43134 4.75488 7.19244 4.68545C6.95354 4.61601 6.701 4.60787 6.45812 4.66177C6.21524 4.71567 5.98985 4.82988 5.80275 4.99385C5.61564 5.15783 5.47286 5.36629 5.38756 5.6L0.466623 19.1356C0.385784 19.3588 0.359672 19.5982 0.390479 19.8336C0.421286 20.069 0.508113 20.2935 0.643671 20.4884C0.779229 20.6833 0.959562 20.8428 1.16953 20.9536C1.3795 21.0644 1.61298 21.1231 1.85037 21.125C2.02516 21.1238 2.19839 21.0921 2.36225 21.0312L15.8969 16.1094C16.1307 16.0242 16.3393 15.8815 16.5033 15.6944C16.6674 15.5074 16.7817 15.282 16.8357 15.0391C16.8897 14.7962 16.8817 14.5436 16.8123 14.3047C16.7429 14.0657 16.6145 13.8481 16.4388 13.6719L7.82506 5.05906ZM7.04412 17.735L3.76287 14.4537L4.99662 11.0591L10.4388 16.5012L7.04412 17.735ZM1.88787 19.61L3.20037 16.0091L5.49256 18.3013L1.88787 19.61ZM11.9979 15.935L5.56287 9.5L6.78162 6.13719L15.3532 14.7087L11.9979 15.935ZM12.3729 6.875C12.387 6.36797 12.5097 5.86988 12.7329 5.41437C13.2297 4.42156 14.1672 3.875 15.3729 3.875C16.001 3.875 16.4041 3.66031 16.6526 3.19906C16.7834 2.94101 16.8584 2.65833 16.8729 2.36937C16.8736 2.17046 16.9534 1.97999 17.0945 1.83987C17.2357 1.69974 17.4268 1.62144 17.6257 1.62219C17.8246 1.62293 18.0151 1.70267 18.1552 1.84385C18.2953 1.98503 18.3736 2.17609 18.3729 2.375C18.3729 3.58063 17.5741 5.375 15.3729 5.375C14.7447 5.375 14.3416 5.58969 14.0932 6.05094C13.9624 6.30899 13.8873 6.59167 13.8729 6.88062C13.8725 6.97912 13.8527 7.07657 13.8147 7.16742C13.7767 7.25828 13.7211 7.34075 13.6512 7.41013C13.5813 7.47951 13.4984 7.53445 13.4073 7.5718C13.3162 7.60915 13.2186 7.62818 13.1201 7.62781C13.0216 7.62744 12.9241 7.60768 12.8333 7.56965C12.7424 7.53161 12.6599 7.47606 12.5906 7.40615C12.5212 7.33625 12.4662 7.25336 12.4289 7.16223C12.3915 7.07109 12.3725 6.97349 12.3729 6.875ZM10.1229 3.875V1.625C10.1229 1.42609 10.2019 1.23532 10.3425 1.09467C10.4832 0.954018 10.674 0.875 10.8729 0.875C11.0718 0.875 11.2626 0.954018 11.4032 1.09467C11.5439 1.23532 11.6229 1.42609 11.6229 1.625V3.875C11.6229 4.07391 11.5439 4.26468 11.4032 4.40533C11.2626 4.54598 11.0718 4.625 10.8729 4.625C10.674 4.625 10.4832 4.54598 10.3425 4.40533C10.2019 4.26468 10.1229 4.07391 10.1229 3.875ZM19.6535 11.5944C19.7231 11.6641 19.7783 11.7468 19.816 11.8378C19.8536 11.9288 19.873 12.0264 19.873 12.1249C19.8729 12.2234 19.8535 12.3209 19.8157 12.4119C19.778 12.5029 19.7227 12.5855 19.653 12.6552C19.5833 12.7248 19.5006 12.78 19.4096 12.8176C19.3186 12.8553 19.221 12.8747 19.1225 12.8746C19.024 12.8746 18.9265 12.8551 18.8355 12.8174C18.7445 12.7797 18.6619 12.7244 18.5922 12.6547L17.0922 11.1547C16.9515 11.014 16.8725 10.8231 16.8725 10.6241C16.8725 10.425 16.9515 10.2342 17.0922 10.0934C17.233 9.95271 17.4238 9.87365 17.6229 9.87365C17.8219 9.87365 18.0128 9.95271 18.1535 10.0934L19.6535 11.5944ZM20.1101 7.58656L17.8601 8.33656C17.6713 8.39947 17.4654 8.38483 17.2874 8.29587C17.1095 8.2069 16.9742 8.05091 16.9113 7.86219C16.8484 7.67347 16.863 7.46749 16.952 7.28957C17.041 7.11164 17.197 6.97634 17.3857 6.91344L19.6357 6.16344C19.8244 6.10053 20.0304 6.11517 20.2083 6.20413C20.3862 6.2931 20.5215 6.44909 20.5844 6.63781C20.6473 6.82653 20.6327 7.03251 20.5437 7.21043C20.4548 7.38836 20.2988 7.52366 20.1101 7.58656Z" fill="#604AFF"/>
</svg>
