<svg width="29" height="22" viewBox="0 0 29 22" fill="none" xmlns="http://www.w3.org/2000/svg">
<path d="M20.9434 6.57837V5.9375C20.9434 3.05188 16.5908 0.875 10.8184 0.875C5.04596 0.875 0.693359 3.05188 0.693359 5.9375V10.5398C0.693359 12.9433 3.7136 14.8533 8.057 15.4251V16.0625C8.057 18.9481 12.4096 21.125 18.182 21.125C23.9544 21.125 28.307 18.9481 28.307 16.0625V11.4602C28.307 9.07855 25.3823 7.16631 20.9434 6.57837ZM26.4661 11.4602C26.4661 12.9813 22.9235 14.6818 18.182 14.6818C17.7528 14.6818 17.3271 14.6669 16.9072 14.6392C19.3889 13.7349 20.9434 12.2656 20.9434 10.5398V8.43884C24.3801 8.95084 26.4661 10.3407 26.4661 11.4602ZM8.057 13.56V10.8228C8.97259 10.9421 9.89502 11.0013 10.8184 11C11.7417 11.0013 12.6641 10.9421 13.5797 10.8228V13.56C12.6655 13.6951 11.7425 13.7624 10.8184 13.7614C9.8942 13.7624 8.97123 13.6951 8.057 13.56ZM19.1025 8.92092V10.5398C19.1025 11.5051 17.6746 12.5418 15.4206 13.1711V10.4822C16.906 10.1221 18.1636 9.58595 19.1025 8.92092ZM10.8184 2.71591C15.5599 2.71591 19.1025 4.41645 19.1025 5.9375C19.1025 7.45855 15.5599 9.15909 10.8184 9.15909C6.07687 9.15909 2.53427 7.45855 2.53427 5.9375C2.53427 4.41645 6.07687 2.71591 10.8184 2.71591ZM2.53427 10.5398V8.92092C3.47313 9.58595 4.7307 10.1221 6.21609 10.4822V13.1711C3.96212 12.5418 2.53427 11.5051 2.53427 10.5398ZM9.89791 16.0625V15.5827C10.2005 15.5942 10.5066 15.6023 10.8184 15.6023C11.2648 15.6023 11.7008 15.5873 12.1289 15.562C12.6043 15.7322 13.0887 15.8766 13.5797 15.9946V18.6938C11.3258 18.0645 9.89791 17.0278 9.89791 16.0625ZM15.4206 19.0827V16.3386C16.3359 16.4617 17.2585 16.5232 18.182 16.5227C19.1053 16.524 20.0278 16.4648 20.9434 16.3455V19.0827C19.1122 19.3512 17.2518 19.3512 15.4206 19.0827ZM22.7843 18.6938V16.005C24.2697 15.6448 25.5272 15.1087 26.4661 14.4437V16.0625C26.4661 17.0278 25.0382 18.0645 22.7843 18.6938Z" fill="#604AFF"/>
</svg>
