<svg width="23" height="22" viewBox="0 0 23 22" fill="none" xmlns="http://www.w3.org/2000/svg">
<path d="M19.9375 0.875H3.0625C2.39117 0.875 1.74734 1.14168 1.27264 1.61639C0.797935 2.09109 0.53125 2.73492 0.53125 3.40625V15.2188C0.53125 15.8901 0.797935 16.5339 1.27264 17.0086C1.74734 17.4833 2.39117 17.75 3.0625 17.75H10.6562V19.4375H8.125C7.90122 19.4375 7.68661 19.5264 7.52838 19.6846C7.37014 19.8429 7.28125 20.0575 7.28125 20.2812C7.28125 20.505 7.37014 20.7196 7.52838 20.8779C7.68661 21.0361 7.90122 21.125 8.125 21.125H14.875C15.0988 21.125 15.3134 21.0361 15.4716 20.8779C15.6299 20.7196 15.7188 20.505 15.7188 20.2812C15.7188 20.0575 15.6299 19.8429 15.4716 19.6846C15.3134 19.5264 15.0988 19.4375 14.875 19.4375H12.3438V17.75H19.9375C20.6088 17.75 21.2527 17.4833 21.7274 17.0086C22.2021 16.5339 22.4688 15.8901 22.4688 15.2188V3.40625C22.4688 2.73492 22.2021 2.09109 21.7274 1.61639C21.2527 1.14168 20.6088 0.875 19.9375 0.875ZM3.0625 2.5625H19.9375C20.1613 2.5625 20.3759 2.65139 20.5341 2.80963C20.6924 2.96786 20.7812 3.18247 20.7812 3.40625V11.8438H2.21875V3.40625C2.21875 3.18247 2.30764 2.96786 2.46588 2.80963C2.62411 2.65139 2.83872 2.5625 3.0625 2.5625ZM19.9375 16.0625H3.0625C2.83872 16.0625 2.62411 15.9736 2.46588 15.8154C2.30764 15.6571 2.21875 15.4425 2.21875 15.2188V13.5312H20.7812V15.2188C20.7812 15.4425 20.6924 15.6571 20.5341 15.8154C20.3759 15.9736 20.1613 16.0625 19.9375 16.0625Z" fill="#604AFF"/>
</svg>
