<svg width="19" height="22" viewBox="0 0 19 22" fill="none" xmlns="http://www.w3.org/2000/svg">
<path d="M18.6818 20.5819C18.6508 20.6794 18.6009 20.7699 18.5349 20.8481C18.469 20.9264 18.3883 20.9908 18.2974 21.0379C18.2065 21.0849 18.1072 21.1136 18.0053 21.1222C17.9033 21.1309 17.8006 21.1193 17.7031 21.0883L9.37005 18.4366L1.03698 21.0883C0.939464 21.1193 0.836798 21.1308 0.73484 21.1222C0.632883 21.1135 0.53363 21.0848 0.442749 21.0378C0.351869 20.9908 0.27114 20.9263 0.205172 20.8481C0.139204 20.7699 0.0892889 20.6794 0.0582767 20.5819C0.0272645 20.4844 0.0157623 20.3817 0.0244272 20.2798C0.0330921 20.1778 0.0617542 20.0786 0.108777 19.9877C0.1558 19.8968 0.220263 19.8161 0.298485 19.7501C0.376707 19.6842 0.467156 19.6342 0.564669 19.6032L6.79719 17.6195L0.564669 15.6349C0.464463 15.6062 0.371032 15.5577 0.289908 15.4922C0.208785 15.4268 0.141618 15.3457 0.0923855 15.2539C0.0431532 15.162 0.0128564 15.0612 0.00328904 14.9574C-0.00627833 14.8536 0.00507833 14.749 0.0366866 14.6496C0.068295 14.5503 0.119512 14.4583 0.187305 14.3792C0.255098 14.3 0.338089 14.2352 0.431362 14.1887C0.524636 14.1422 0.626295 14.1149 0.730321 14.1083C0.834347 14.1018 0.938624 14.1162 1.03698 14.1507L9.37005 16.8015L17.7031 14.1507C17.8015 14.1162 17.9057 14.1018 18.0098 14.1083C18.1138 14.1149 18.2155 14.1422 18.3087 14.1887C18.402 14.2352 18.485 14.3 18.5528 14.3792C18.6206 14.4583 18.6718 14.5503 18.7034 14.6496C18.735 14.749 18.7464 14.8536 18.7368 14.9574C18.7272 15.0612 18.6969 15.162 18.6477 15.2539C18.5985 15.3457 18.5313 15.4268 18.4502 15.4922C18.3691 15.5577 18.2756 15.6062 18.1754 15.6349L11.9429 17.6195L18.1754 19.6032C18.2729 19.6342 18.3634 19.6841 18.4416 19.7501C18.5199 19.8161 18.5843 19.8968 18.6314 19.9877C18.6784 20.0786 18.707 20.1778 18.7157 20.2798C18.7244 20.3817 18.7128 20.4844 18.6818 20.5819ZM3.52706 9.04982C3.52706 7.09242 4.47849 5.06978 6.27716 3.20684C7.08422 2.36758 7.98508 1.62389 8.96201 0.990401C9.08474 0.914947 9.22598 0.875 9.37005 0.875C9.51411 0.875 9.65536 0.914947 9.77808 0.990401C10.0001 1.12187 15.213 4.38323 15.213 9.04982C15.213 10.5995 14.5974 12.0857 13.5017 13.1814C12.4059 14.2772 10.9197 14.8928 9.37005 14.8928C7.82039 14.8928 6.3342 14.2772 5.23843 13.1814C4.14266 12.0857 3.52706 10.5995 3.52706 9.04982ZM9.37005 13.3347C9.78329 13.3347 10.1796 13.1705 10.4718 12.8783C10.764 12.5861 10.9282 12.1898 10.9282 11.7765C10.9282 10.4551 9.95434 9.39456 9.37005 8.87551C8.78575 9.39456 7.81192 10.4551 7.81192 11.7765C7.81192 12.1898 7.97608 12.5861 8.26828 12.8783C8.56049 13.1705 8.95681 13.3347 9.37005 13.3347ZM5.08519 9.04982C5.08485 10.1462 5.50644 11.2007 6.26255 11.9947C6.26255 11.9226 6.25379 11.8496 6.25379 11.7765C6.25379 9.04982 8.8286 7.30569 8.93766 7.23266C9.06569 7.14724 9.21614 7.10166 9.37005 7.10166C9.52395 7.10166 9.6744 7.14724 9.80243 7.23266C9.9115 7.30569 12.4863 9.04982 12.4863 11.7765C12.4863 11.8496 12.4863 11.9226 12.4775 11.9947C13.2337 11.2007 13.6552 10.1462 13.6549 9.04982C13.6549 5.93357 10.5133 3.40161 9.37005 2.58943C8.22774 3.40161 5.08519 5.93357 5.08519 9.04982Z" fill="#604AFF"/>
</svg>
