<svg width="21" height="22" viewBox="0 0 21 22" fill="none" xmlns="http://www.w3.org/2000/svg">
<path d="M19.7773 7.77521L18.0345 4.75479C17.6607 4.10751 17.0451 3.63519 16.3231 3.44166C15.6012 3.24814 14.8319 3.34927 14.1845 3.72281C13.8234 3.93142 13.5138 4.21836 13.2783 4.56249L11.5245 1.53301C11.2769 1.10487 10.9211 0.749386 10.4927 0.502244C10.0644 0.255102 9.57852 0.125 9.08397 0.125C8.58942 0.125 8.10358 0.255102 7.67521 0.502244C7.24684 0.749386 6.89102 1.10487 6.64348 1.53301C6.12867 1.12765 5.48874 0.914282 4.83367 0.929582C4.17861 0.944882 3.54933 1.18789 3.05401 1.61685C2.55869 2.0458 2.22826 2.6339 2.11953 3.28006C2.01079 3.92621 2.13054 4.59007 2.45819 5.15751L2.61827 5.43539C2.2017 5.4677 1.79773 5.59329 1.43628 5.80287C0.788899 6.17685 0.316589 6.79267 0.123247 7.51488C-0.0700959 8.23708 0.0313642 9.00651 0.405308 9.65391L4.43253 16.6331C5.01193 17.6425 5.78567 18.527 6.709 19.2355C7.63234 19.944 8.68696 20.4625 9.8119 20.761C10.5646 20.9621 11.3404 21.0636 12.1195 21.063C13.6734 21.0604 15.1994 20.6491 16.5441 19.8704C17.8889 19.0917 19.0052 17.973 19.781 16.6265C20.5569 15.2801 20.9649 13.7533 20.9643 12.1994C20.9636 10.6454 20.5542 9.11896 19.7773 7.77319V7.77521ZM19.1067 14.0818C18.7354 15.4664 17.9619 16.7097 16.8841 17.6548C15.8062 18.5998 14.4724 19.204 13.0511 19.3911C11.6299 19.5781 10.1852 19.3396 8.89948 18.7057C7.61379 18.0718 6.54492 17.0709 5.82797 15.8297L1.80074 8.85047C1.64744 8.57346 1.609 8.24733 1.6937 7.94226C1.7784 7.63719 1.97947 7.37756 2.25365 7.21923C2.52782 7.0609 2.8532 7.01652 3.15976 7.09564C3.46632 7.17476 3.72958 7.37106 3.89288 7.64231L5.82897 10.997C5.8803 11.0915 5.95004 11.1748 6.03407 11.2419C6.1181 11.3091 6.21473 11.3587 6.31826 11.3879C6.42178 11.417 6.5301 11.4252 6.63682 11.4118C6.74355 11.3985 6.84652 11.3639 6.93965 11.3101C7.03279 11.2563 7.11421 11.1844 7.17911 11.0986C7.244 11.0128 7.29106 10.9149 7.31751 10.8107C7.34396 10.7064 7.34925 10.5979 7.33309 10.4916C7.31693 10.3852 7.27963 10.2832 7.2234 10.1915L3.85261 4.35207C3.76982 4.21455 3.71526 4.06192 3.69212 3.90308C3.66898 3.74425 3.67772 3.58239 3.71783 3.42697C3.75795 3.27155 3.82863 3.12568 3.92575 2.99789C4.02287 2.87009 4.14448 2.76293 4.28348 2.68266C4.42248 2.60239 4.57608 2.55062 4.73531 2.53038C4.89455 2.51014 5.05622 2.52183 5.21088 2.56477C5.36554 2.60771 5.5101 2.68104 5.6361 2.78048C5.76211 2.87991 5.86703 3.00346 5.94475 3.1439L9.088 8.58065C9.13933 8.67517 9.20907 8.75846 9.2931 8.82559C9.37714 8.89272 9.47377 8.94234 9.57729 8.97152C9.68081 9.00071 9.78913 9.00886 9.89585 8.9955C10.0026 8.98214 10.1055 8.94755 10.1987 8.89375C10.2918 8.83995 10.3732 8.76804 10.4381 8.68227C10.503 8.5965 10.5501 8.49859 10.5765 8.39434C10.603 8.29008 10.6083 8.18159 10.5921 8.07525C10.576 7.96891 10.5387 7.86689 10.4824 7.77521L8.0379 3.54662C7.95511 3.40911 7.90055 3.25647 7.87741 3.09764C7.85427 2.9388 7.86301 2.77695 7.90312 2.62153C7.94324 2.46611 8.01392 2.32024 8.11104 2.19244C8.20816 2.06464 8.32977 1.95748 8.46877 1.87721C8.60777 1.79694 8.76137 1.74517 8.92061 1.72493C9.07984 1.70469 9.24151 1.71638 9.39617 1.75933C9.55083 1.80227 9.69539 1.8756 9.82139 1.97503C9.9474 2.07447 10.0523 2.19801 10.13 2.33845L13.4948 8.16786C12.7111 8.96371 12.2272 10.0065 12.1255 11.1188C12.0238 12.2311 12.3106 13.3443 12.937 14.2691C13.0572 14.4459 13.2426 14.5677 13.4526 14.6077C13.6626 14.6477 13.8798 14.6027 14.0566 14.4825C14.2334 14.3624 14.3552 14.1769 14.3952 13.967C14.4352 13.757 14.3902 13.5397 14.27 13.363C13.8075 12.6779 13.6259 11.8413 13.7629 11.0261C13.8999 10.2109 14.3449 9.4796 15.006 8.98337C15.1636 8.86524 15.2724 8.69347 15.3119 8.50053C15.3514 8.30759 15.3189 8.10686 15.2205 7.93629L14.5479 6.7684C14.4624 6.63087 14.4054 6.47754 14.3803 6.31754C14.3552 6.15753 14.3625 5.99412 14.4018 5.837C14.4412 5.67989 14.5117 5.53229 14.6092 5.40297C14.7067 5.27365 14.8292 5.16526 14.9695 5.08424C15.1097 5.00321 15.2648 4.95121 15.4255 4.93133C15.5863 4.91144 15.7493 4.92408 15.9051 4.96848C16.0609 5.01289 16.2061 5.08816 16.3322 5.18981C16.4583 5.29147 16.5626 5.41744 16.639 5.56023L18.3818 8.58065C18.86 9.40391 19.1703 10.3138 19.2947 11.2577C19.4191 12.2016 19.3552 13.1608 19.1067 14.0798V14.0818ZM16.1608 0.899729C16.215 0.693474 16.3488 0.517126 16.5328 0.409357C16.7168 0.301588 16.9361 0.271195 17.1424 0.324843C17.9117 0.527576 18.633 0.881197 19.2644 1.36515C19.8958 1.84911 20.4247 2.45374 20.8203 3.1439L20.8535 3.20129C20.9098 3.29297 20.9471 3.395 20.9632 3.50133C20.9794 3.60767 20.9741 3.71617 20.9476 3.82042C20.9212 3.92468 20.8741 4.02258 20.8092 4.10835C20.7443 4.19413 20.6629 4.26603 20.5698 4.31983C20.4767 4.37363 20.3737 4.40823 20.267 4.42158C20.1602 4.43494 20.0519 4.42679 19.9484 4.39761C19.8449 4.36842 19.7482 4.3188 19.6642 4.25167C19.5802 4.18454 19.5104 4.10125 19.4591 4.00673L19.4259 3.94934C19.1355 3.44355 18.7474 3.00059 18.2842 2.64625C17.8209 2.2919 17.2918 2.03326 16.7276 1.88539C16.522 1.82951 16.3469 1.6944 16.2406 1.50966C16.1344 1.32491 16.1057 1.10559 16.1608 0.899729ZM5.75447 21.5684C5.62223 21.736 5.42887 21.8443 5.21686 21.8694C5.00485 21.8945 4.79155 21.8344 4.62383 21.7024C3.41913 20.7508 2.40757 19.5776 1.64368 18.246C1.59079 18.1544 1.55647 18.0532 1.54268 17.9483C1.52888 17.8434 1.53588 17.7369 1.56327 17.6347C1.59066 17.5325 1.63791 17.4367 1.70232 17.3528C1.76674 17.2688 1.84705 17.1984 1.93867 17.1455C2.0303 17.0927 2.13144 17.0583 2.23633 17.0445C2.34122 17.0307 2.4478 17.0377 2.54999 17.0651C2.65217 17.0925 2.74796 17.1398 2.83189 17.2042C2.91581 17.2686 2.98623 17.3489 3.03911 17.4405C3.7012 18.5932 4.57739 19.6088 5.62056 20.4328C5.70428 20.4983 5.77419 20.5797 5.82628 20.6724C5.87836 20.7651 5.91158 20.8671 5.92403 20.9727C5.93648 21.0783 5.92791 21.1853 5.8988 21.2875C5.8697 21.3898 5.82065 21.4853 5.75447 21.5684Z" fill="#604AFF"/>
</svg>
