<svg width="16" height="22" viewBox="0 0 16 22" fill="none" xmlns="http://www.w3.org/2000/svg">
<path d="M12.2934 20.4019C12.2934 20.5937 12.2172 20.7776 12.0816 20.9132C11.9459 21.0488 11.762 21.125 11.5702 21.125H4.33891C4.14712 21.125 3.96319 21.0488 3.82758 20.9132C3.69196 20.7776 3.61578 20.5937 3.61578 20.4019C3.61578 20.2101 3.69196 20.0261 3.82758 19.8905C3.96319 19.7549 4.14712 19.6787 4.33891 19.6787H11.5702C11.762 19.6787 11.9459 19.7549 12.0816 19.8905C12.2172 20.0261 12.2934 20.2101 12.2934 20.4019ZM15.909 8.83176C15.9121 10.0373 15.6398 11.2275 15.1128 12.3117C14.5858 13.396 13.8181 14.3455 12.8682 15.0878C12.6906 15.2239 12.5465 15.3988 12.4469 15.5992C12.3472 15.7996 12.2947 16.0201 12.2934 16.2439V16.7862C12.2934 17.1698 12.141 17.5376 11.8698 17.8089C11.5985 18.0801 11.2307 18.2325 10.8471 18.2325H5.06204C4.67847 18.2325 4.31061 18.0801 4.03938 17.8089C3.76815 17.5376 3.61578 17.1698 3.61578 16.7862V16.2439C3.61563 16.0228 3.56479 15.8046 3.46717 15.6063C3.36954 15.4079 3.22773 15.2345 3.05264 15.0995C2.10528 14.3617 1.33815 13.418 0.8093 12.34C0.280454 11.2619 0.00374699 10.0777 0.000118277 8.87696C-0.0233835 4.56799 3.4585 0.981259 7.76294 0.877309C8.82355 0.85175 9.87855 1.03862 10.8659 1.4269C11.8532 1.81519 12.7528 2.39706 13.5119 3.13826C14.2709 3.87946 14.874 4.76502 15.2857 5.7428C15.6974 6.72058 15.9093 7.77084 15.909 8.83176ZM14.4628 8.83176C14.463 7.96369 14.2896 7.10435 13.9527 6.30431C13.6159 5.50427 13.1224 4.77971 12.5013 4.17326C11.8802 3.56682 11.144 3.09076 10.3362 2.7731C9.52834 2.45543 8.6651 2.30259 7.79729 2.32357C4.27202 2.40673 1.4274 5.34174 1.44638 8.86701C1.44962 9.84921 1.67624 10.8178 2.10909 11.6995C2.54194 12.5811 3.16968 13.3528 3.9448 13.9561C4.29321 14.2269 4.57503 14.5739 4.76868 14.9704C4.96233 15.367 5.06267 15.8026 5.06204 16.2439V16.7862H7.23144V12.7466L4.55042 10.0665C4.41474 9.93082 4.33851 9.74678 4.33851 9.55489C4.33851 9.363 4.41474 9.17896 4.55042 9.04327C4.68611 8.90759 4.87015 8.83136 5.06204 8.83136C5.25393 8.83136 5.43797 8.90759 5.57366 9.04327L7.95457 11.4251L10.3355 9.04327C10.4027 8.97609 10.4824 8.92279 10.5702 8.88643C10.658 8.85007 10.7521 8.83136 10.8471 8.83136C10.9421 8.83136 11.0362 8.85007 11.124 8.88643C11.2118 8.92279 11.2915 8.97609 11.3587 9.04327C11.4259 9.11046 11.4792 9.19022 11.5156 9.27801C11.5519 9.36579 11.5706 9.45988 11.5706 9.55489C11.5706 9.64991 11.5519 9.74399 11.5156 9.83178C11.4792 9.91956 11.4259 9.99932 11.3587 10.0665L8.6777 12.7466V16.7862H10.8471V16.2439C10.8479 15.8013 10.9499 15.3647 11.1452 14.9676C11.3406 14.5704 11.6242 14.2232 11.9743 13.9524C12.7517 13.3449 13.3801 12.5677 13.8114 11.6802C14.2426 10.7927 14.4654 9.81846 14.4628 8.83176Z" fill="#604AFF"/>
</svg>
