<svg width="15" height="22" viewBox="0 0 15 22" fill="none" xmlns="http://www.w3.org/2000/svg">
<path d="M14.0192 5.90245V2.43269C14.0192 2.01957 13.8551 1.62336 13.563 1.33124C13.2709 1.03911 12.8747 0.875 12.4615 0.875H1.55769C1.14457 0.875 0.748361 1.03911 0.456237 1.33124C0.164113 1.62336 0 2.01957 0 2.43269V5.9375C0.000526198 6.17923 0.0570602 6.41755 0.165166 6.63376C0.273271 6.84997 0.430008 7.03819 0.623077 7.18365L5.71186 11L0.623077 14.8163C0.430008 14.9618 0.273271 15.15 0.165166 15.3662C0.0570602 15.5824 0.000526198 15.8208 0 16.0625V19.5673C0 19.9804 0.164113 20.3766 0.456237 20.6688C0.748361 20.9609 1.14457 21.125 1.55769 21.125H12.4615C12.8747 21.125 13.2709 20.9609 13.563 20.6688C13.8551 20.3766 14.0192 19.9804 14.0192 19.5673V16.0975C14.0186 15.8569 13.9625 15.6196 13.8553 15.4042C13.7481 15.1887 13.5926 15.0009 13.401 14.8553L8.30153 11L13.401 7.14471C13.5928 6.99925 13.7483 6.81145 13.8556 6.59597C13.9628 6.38049 14.0188 6.14314 14.0192 5.90245ZM11.8998 15.6731H2.0766L7.00962 11.9736L11.8998 15.6731ZM1.55769 19.5673V17.2308H12.4615V19.5673H1.55769ZM12.4615 5.90245L7.00962 10.0264L1.55769 5.9375V2.43269H12.4615V5.90245Z" fill="#604AFF"/>
</svg>
