<svg width="80" height="80" viewBox="0 0 80 80" fill="none" xmlns="http://www.w3.org/2000/svg">
<rect width="80" height="80" rx="40" fill="white"/>
<g clip-path="url(#clip0_1_552)">
<path fill-rule="evenodd" clip-rule="evenodd" d="M39.0214 15.3847C25.0915 15.3847 14.29 25.5926 14.29 39.3741C14.29 46.5833 17.2454 52.8157 22.0557 57.1189C22.4576 57.4775 22.7049 57.9845 22.7173 58.5286L22.8533 62.9308C22.8966 64.3343 24.3434 65.2494 25.6294 64.6806L30.5386 62.5166C30.9528 62.3311 31.4227 62.3002 31.8617 62.4176C34.1184 63.0359 36.5174 63.3698 39.0214 63.3698C52.9514 63.3698 63.7529 53.1619 63.7529 39.3803C63.7529 25.5987 52.9514 15.3847 39.0214 15.3847Z" fill="url(#paint0_radial_1_552)"/>
</g>
<path d="M47.0301 53.4292H30.7496C28.7494 53.4292 27.1289 51.7577 27.1289 49.6945C27.1289 47.6313 28.7494 45.9599 30.7496 45.9599H47.0301C49.0304 45.9599 50.6508 47.6313 50.6508 49.6945C50.6508 51.7577 49.0304 53.4292 47.0301 53.4292Z" fill="white"/>
<path d="M51.1058 46.1427C49.8652 46.1427 48.6498 45.4637 47.9662 44.2884L39.8386 29.7677C38.8511 27.9918 39.4335 25.6935 41.1552 24.675C42.8769 23.6564 45.1051 24.2571 46.0925 26.033L54.2201 40.5538C55.2076 42.3297 54.6252 44.6279 52.9035 45.6465C52.3211 45.986 51.7135 46.1427 51.1058 46.1427Z" fill="white"/>
<path d="M26.6731 46.1427C26.0655 46.1427 25.4325 45.986 24.8755 45.6465C23.1537 44.6279 22.5461 42.3297 23.5588 40.5538L31.6864 26.033C32.6739 24.2571 34.902 23.6303 36.6237 24.675C38.3455 25.6935 38.9531 27.9918 37.9404 29.7677L29.8128 44.2884C29.1545 45.4637 27.9391 46.1427 26.6731 46.1427Z" fill="white"/>
<defs>
<radialGradient id="paint0_radial_1_552" cx="0" cy="0" r="1" gradientUnits="userSpaceOnUse" gradientTransform="translate(23.8116 64.5864) scale(53.8947 53.8947)">
<stop stop-color="#0099FF"/>
<stop offset="0.6098" stop-color="#A033FF"/>
<stop offset="0.9348" stop-color="#FF5280"/>
<stop offset="1" stop-color="#FF7061"/>
</radialGradient>
<clipPath id="clip0_1_552">
<rect width="49.4628" height="49.4628" fill="white" transform="translate(14.29 15.3868)"/>
</clipPath>
</defs>
</svg>
