<svg width="80" height="80" viewBox="0 0 80 80" fill="none" xmlns="http://www.w3.org/2000/svg">
<rect width="80" height="80" rx="40" fill="white"/>
<path d="M17.5869 17.582H37.7684V21.9067H17.5869V17.582ZM17.5869 25.5104H37.7684V29.835H17.5869V25.5104ZM17.5869 33.4389V37.7635H37.7684V33.4389H17.5869ZM57.2291 17.582H61.5538V37.7636H57.2291V17.582ZM49.3006 17.582H53.6252V37.7636H49.3006V17.582ZM41.3723 17.582V37.7635H45.6968V17.582H41.3723ZM41.3723 57.2243H61.5538V61.549H41.3723V57.2243ZM41.3723 49.2958H61.5538V53.6204H41.3723V49.2958ZM55.4273 41.3674H41.3723V45.692H61.5539V41.3674H55.4273ZM17.5869 41.3674H21.9116V61.549H17.5869V41.3674ZM25.5154 41.3674H29.84V61.549H25.5154V41.3674ZM33.4438 41.3674V61.5489H37.7684V41.3674H33.4438Z" fill="#36C5F0"/>
<mask id="mask0_1_557" style="mask-type:alpha" maskUnits="userSpaceOnUse" x="17" y="40" width="22" height="22">
<rect x="17.5869" y="40.8125" width="20.7391" height="20.7391" fill="#D9D9D9"/>
</mask>
<g mask="url(#mask0_1_557)">
<path d="M17.5869 17.5859H37.7684V21.9106H17.5869V17.5859ZM17.5869 25.5143H37.7684V29.8389H17.5869V25.5143ZM17.5869 33.4428V37.7674H37.7684V33.4428H17.5869ZM57.2291 17.5859H61.5538V37.7675H57.2291V17.5859ZM49.3006 17.5859H53.6252V37.7675H49.3006V17.5859ZM41.3723 17.5859V37.7674H45.6968V17.5859H41.3723ZM41.3723 57.2282H61.5538V61.5529H41.3723V57.2282ZM41.3723 49.2997H61.5538V53.6243H41.3723V49.2997ZM55.4273 41.3713H41.3723V45.6959H61.5539V41.3713H55.4273ZM17.5869 41.3713H21.9116V61.5529H17.5869V41.3713ZM25.5154 41.3713H29.84V61.5529H25.5154V41.3713ZM33.4438 41.3713V61.5528H37.7684V41.3713H33.4438Z" fill="#E01E5A"/>
</g>
<mask id="mask1_1_557" style="mask-type:alpha" maskUnits="userSpaceOnUse" x="17" y="17" width="45" height="45">
<path d="M17.5869 17.582H37.7684V21.9067H17.5869V17.582ZM17.5869 25.5104H37.7684V29.835H17.5869V25.5104ZM17.5869 33.4389V37.7635H37.7684V33.4389H17.5869ZM57.2291 17.582H61.5538V37.7636H57.2291V17.582ZM49.3006 17.582H53.6252V37.7636H49.3006V17.582ZM41.3723 17.582V37.7635H45.6968V17.582H41.3723ZM41.3723 57.2243H61.5538V61.549H41.3723V57.2243ZM41.3723 49.2958H61.5538V53.6204H41.3723V49.2958ZM55.4273 41.3674H41.3723V45.692H61.5539V41.3674H55.4273ZM17.5869 41.3674H21.9116V61.549H17.5869V41.3674ZM25.5154 41.3674H29.84V61.549H25.5154V41.3674ZM33.4438 41.3674V61.5489H37.7684V41.3674H33.4438Z" fill="black"/>
</mask>
<g mask="url(#mask1_1_557)">
<rect x="40.8154" y="17.582" width="20.7391" height="20.7391" fill="#2EB67D"/>
</g>
<mask id="mask2_1_557" style="mask-type:alpha" maskUnits="userSpaceOnUse" x="17" y="17" width="45" height="45">
<path d="M17.5869 17.582H37.7684V21.9067H17.5869V17.582ZM17.5869 25.5104H37.7684V29.835H17.5869V25.5104ZM17.5869 33.4389V37.7635H37.7684V33.4389H17.5869ZM57.2291 17.582H61.5538V37.7636H57.2291V17.582ZM49.3006 17.582H53.6252V37.7636H49.3006V17.582ZM41.3723 17.582V37.7635H45.6968V17.582H41.3723ZM41.3723 57.2243H61.5538V61.549H41.3723V57.2243ZM41.3723 49.2958H61.5538V53.6204H41.3723V49.2958ZM55.4273 41.3674H41.3723V45.692H61.5539V41.3674H55.4273ZM17.5869 41.3674H21.9116V61.549H17.5869V41.3674ZM25.5154 41.3674H29.84V61.549H25.5154V41.3674ZM33.4438 41.3674V61.5489H37.7684V41.3674H33.4438Z" fill="black"/>
</mask>
<g mask="url(#mask2_1_557)">
<rect x="40.8154" y="40.8086" width="20.7391" height="20.7391" fill="#ECB22E"/>
</g>
</svg>
