<svg width="80" height="80" viewBox="0 0 80 80" fill="none" xmlns="http://www.w3.org/2000/svg">
<rect width="80" height="80" rx="40" fill="white"/>
<path fill-rule="evenodd" clip-rule="evenodd" d="M41.7017 15.3868H38.0468V31.0302L31.9846 16.5259L28.5959 17.8494L34.8151 32.7294L23.0757 21.3813L20.4913 23.8796L31.743 34.7562L17.1616 28.5979L15.6983 31.8354L31.1271 38.3517H14.29V41.8848H31.1271L15.6983 48.401L17.1616 51.6386L31.743 45.4802L20.4913 56.3569L23.0757 58.855L34.8151 47.507L28.5959 62.3871L31.9846 63.7105L38.0468 49.2063V64.8496H41.7017V49.2063L47.7639 63.7105L51.1525 62.3871L44.9335 47.507L56.6728 58.855L59.2571 56.3569L48.0054 45.4802L62.5869 51.6386L64.05 48.401L48.6215 41.8848H65.4585V38.3517H48.6212L64.05 31.8354L62.5869 28.5979L48.0054 34.7562L59.2571 23.8796L56.6728 21.3813L44.9335 32.7294L51.1525 17.8494L47.7639 16.5259L41.7017 31.0302V15.3868Z" fill="#FF4A00"/>
</svg>
