<svg width="80" height="80" viewBox="0 0 80 80" fill="none" xmlns="http://www.w3.org/2000/svg">
<rect width="80" height="80" rx="40" fill="white"/>
<path d="M40.1207 13.669C25.5325 13.669 13.6719 25.5297 13.6719 40.1179C13.6719 54.7061 25.5325 66.5668 40.1207 66.5668C54.7089 66.5668 66.5696 54.7061 66.5696 40.1179C66.5696 25.5297 54.7089 13.669 40.1207 13.669Z" fill="#FDDD4C"/>
<path fill-rule="evenodd" clip-rule="evenodd" d="M43.6718 54.5977H37.7112V38.7524C37.7112 37.1612 36.3769 35.8714 34.7309 35.8714C33.085 35.8714 31.7506 37.1612 31.7506 38.7524V54.5977H25.79V40.1929C25.79 32.2374 32.4617 25.7881 40.6915 25.7881C48.9213 25.7881 55.593 32.2374 55.593 40.1929V54.5977H49.6324V38.7524C49.6324 37.1612 48.2982 35.8714 46.6521 35.8714C45.0061 35.8714 43.6718 37.1612 43.6718 38.7524V54.5977Z" fill="black"/>
</svg>
