<svg width="30" height="40" viewBox="0 0 30 40" fill="none" xmlns="http://www.w3.org/2000/svg">
<path d="M29.1951 2.67082C28.7015 1.82149 27.9675 1.13723 27.0858 0.704221C26.204 0.271211 25.2138 0.108815 24.2399 0.237489C23.266 0.366162 22.352 0.78015 21.6129 1.42731C20.8739 2.07447 20.3429 2.92586 20.0868 3.87424L17.7759 12.4635L15.4739 3.87424C15.3255 3.22116 15.0468 2.60475 14.6545 2.06193C14.2623 1.51911 13.7645 1.06104 13.191 0.715151C12.6175 0.369267 11.9801 0.142682 11.3169 0.0489679C10.6538 -0.0447464 9.97854 -0.00366267 9.33165 0.169758C8.68476 0.34318 8.07952 0.645371 7.55219 1.05823C7.02485 1.4711 6.58626 1.98614 6.26269 2.57252C5.93911 3.1589 5.73721 3.80455 5.66906 4.4708C5.60092 5.13706 5.66794 5.81021 5.86611 6.44995L7.53348 12.6715L5.98165 12.3728C4.92071 12.1545 3.81751 12.2882 2.83946 12.7537C1.86141 13.2192 1.06191 13.991 0.562278 14.9521C0.0626494 15.9131 -0.109827 17.011 0.0710218 18.0789C0.251871 19.1469 0.776173 20.1267 1.56436 20.8697C1.06685 21.3363 0.671094 21.9007 0.401916 22.5275C0.132737 23.1542 -0.00406236 23.8298 9.18527e-05 24.5119V25.7794C9.18527e-05 29.5509 1.49833 33.168 4.16522 35.8349C6.83211 38.5018 10.4492 40 14.2207 40H14.3292C22.1114 39.9413 28.4414 33.4905 28.4414 25.6194V25.0257C28.44 22.8191 27.7038 20.6757 26.3492 18.9339L29.6857 6.44995C29.8581 5.81891 29.9035 5.15992 29.8193 4.51119C29.7351 3.86246 29.5229 3.23691 29.1951 2.67082ZM8.81867 4.09288C9.02933 3.72656 9.34404 3.43107 9.72288 3.24388C10.1017 3.05668 10.5276 2.98623 10.9466 3.04146C11.3655 3.09668 11.7586 3.27509 12.076 3.55406C12.3934 3.83303 12.6208 4.19999 12.7293 4.60838L15.3548 14.4117C14.4643 14.4662 13.6048 14.7591 12.8662 15.2596C12.8578 15.2436 12.8483 15.2282 12.8378 15.2134C12.3074 14.4085 11.552 13.7774 10.6656 13.3985L8.60714 5.71403C8.53347 5.44325 8.51423 5.16054 8.55054 4.88227C8.58685 4.604 8.67799 4.3357 8.81867 4.09288ZM2.88866 16.8204C2.94493 16.5445 3.05526 16.2825 3.21329 16.0495C3.37132 15.8164 3.57391 15.617 3.80939 15.4626C4.04487 15.3083 4.30858 15.2021 4.5853 15.1502C4.86203 15.0983 5.1463 15.1016 5.42171 15.1601L9.10308 15.8711C9.37763 15.9271 9.63846 16.0366 9.87067 16.1934C10.1029 16.3502 10.3019 16.5512 10.4564 16.785C10.6109 17.0187 10.7179 17.2806 10.7712 17.5557C10.8244 17.8308 10.823 18.1137 10.7669 18.3882C10.7106 18.6641 10.6003 18.9261 10.4423 19.1591C10.2842 19.3921 10.0816 19.5915 9.84616 19.7459C9.61068 19.9002 9.34698 20.0064 9.07025 20.0584C8.79353 20.1103 8.50926 20.1069 8.23384 20.0484L4.54537 19.3374C3.99258 19.2227 3.50779 18.8936 3.19725 18.4221C2.88671 17.9506 2.77574 17.3753 2.88866 16.8221V16.8204ZM2.88866 24.0587C3.00156 23.5098 3.3259 23.0274 3.79157 22.7158C4.25723 22.4041 4.82684 22.2882 5.37727 22.3931L7.17441 22.7486C7.72851 22.8616 8.21503 23.1901 8.52703 23.6618C8.83903 24.1334 8.95096 24.7097 8.83822 25.2639C8.78209 25.539 8.6722 25.8003 8.51484 26.0329C8.35749 26.2654 8.15577 26.4646 7.92126 26.619C7.68674 26.7734 7.42405 26.88 7.14825 26.9327C6.87245 26.9853 6.58896 26.983 6.31406 26.9259L4.53648 26.5704C3.98266 26.4565 3.4967 26.1275 3.18538 25.6555C2.87406 25.1835 2.76286 24.6072 2.87622 24.0533L2.88866 24.0587ZM25.5973 25.6194C25.5973 31.9351 20.5329 37.1097 14.3096 37.1559C11.8743 37.1732 9.49757 36.4095 7.52813 34.9769C5.5587 33.5443 4.10027 31.5182 3.36683 29.1959C3.56955 29.2642 3.7761 29.3206 3.98543 29.3647L5.76301 29.7203C6.09122 29.7871 6.42528 29.8211 6.76023 29.8216C7.63625 29.8213 8.49668 29.5899 9.25461 29.1507C10.0125 28.7114 10.6411 28.0799 11.0768 27.3199C11.5125 26.56 11.74 25.6984 11.7361 24.8224C11.7322 23.9464 11.4973 23.087 11.0549 22.3309C11.1953 22.2544 11.3339 22.1726 11.4673 22.082L11.4957 22.1282C11.8551 22.6752 12.3196 23.1455 12.8621 23.5116C13.4047 23.8778 14.0145 24.1326 14.6562 24.2613L15.7797 24.4853C15.5668 25.513 15.6099 26.5774 15.9053 27.5845C16.2008 28.5917 16.7394 29.5107 17.4737 30.2606C17.7402 30.5191 18.0971 30.6632 18.4684 30.662C18.8396 30.6608 19.1957 30.5145 19.4605 30.2543C19.7253 29.9942 19.8779 29.6407 19.8856 29.2696C19.8934 28.8984 19.7557 28.539 19.5019 28.268C18.9703 27.7256 18.6264 27.0272 18.5205 26.2752C18.4147 25.5231 18.5524 24.757 18.9135 24.0889C19.0198 23.8932 19.0785 23.6753 19.0851 23.4527C19.0917 23.2302 19.046 23.0092 18.9515 22.8075C18.8571 22.6059 18.7167 22.4292 18.5415 22.2918C18.3663 22.1543 18.1613 22.06 17.943 22.0162L15.2162 21.4705C14.6624 21.357 14.1763 21.0284 13.8647 20.5568C13.5531 20.0852 13.4414 19.5091 13.5541 18.9552C13.6103 18.6805 13.7201 18.4195 13.8772 18.1872C14.0343 17.9549 14.2357 17.7559 14.4698 17.6015C14.7039 17.4472 14.9662 17.3405 15.2416 17.2876C15.517 17.2347 15.8001 17.2366 16.0748 17.2932L19.8806 18.054C21.4909 18.3793 22.9394 19.2508 23.9811 20.5212C25.0228 21.7916 25.5937 23.3828 25.5973 25.0257V25.6194ZM26.9464 5.71048L23.9921 16.7315C22.915 16.0125 21.707 15.5124 20.4369 15.2596L19.9925 15.1708L22.8242 4.61016C22.8934 4.33599 23.0164 4.07832 23.186 3.85211C23.3557 3.62591 23.5686 3.43569 23.8124 3.29251C24.0562 3.14934 24.3261 3.05607 24.6063 3.01812C24.8865 2.98018 25.1714 2.99832 25.4445 3.07149C25.7176 3.14466 25.9735 3.2714 26.1972 3.44433C26.4209 3.61727 26.608 3.83296 26.7476 4.07885C26.8871 4.32474 26.9765 4.59593 27.0103 4.87665C27.0441 5.15737 27.0218 5.44201 26.9447 5.71403L26.9464 5.71048Z" fill="#DFDBFF"/>
</svg>
