<svg width="431" height="103" viewBox="0 0 431 103" fill="none" xmlns="http://www.w3.org/2000/svg">
<path fill-rule="evenodd" clip-rule="evenodd" d="M402.265 40.152C404.43 37.8373 406.95 36.68 409.825 36.68C411.467 36.68 412.662 37.1093 413.409 37.968C414.155 38.8267 414.529 39.7413 414.529 40.712C414.529 41.6827 414.305 42.5787 413.857 43.4C413.446 44.2213 412.625 45.0053 411.393 45.752C410.161 46.4613 408.425 47.1333 406.185 47.768C403.945 48.4027 401.033 49 397.449 49.56C398.494 45.5653 400.099 42.4293 402.265 40.152ZM422.929 78.344C424.907 76.8507 426.923 75.096 428.977 73.08C423.588 69.6198 419.557 69.0584 410.456 71.2583C410.341 71.2877 410.224 71.3162 410.105 71.344C408.985 71.6053 407.659 71.736 406.129 71.736C402.881 71.736 400.417 70.8213 398.737 68.992C397.094 67.1627 396.235 64.2693 396.161 60.312C402.806 59.64 408.313 58.7067 412.681 57.512C417.086 56.3173 420.577 54.8613 423.153 53.144C425.766 51.4267 427.595 49.4853 428.641 47.32C429.686 45.1173 430.209 42.6907 430.209 40.04C430.209 38.248 429.779 36.456 428.921 34.664C428.062 32.872 426.811 31.2667 425.169 29.848C423.526 28.392 421.491 27.216 419.065 26.32C416.675 25.424 413.931 24.976 410.833 24.976C407.697 24.976 404.729 25.424 401.929 26.32C399.166 27.1787 396.609 28.392 394.257 29.96C391.942 31.528 389.851 33.4133 387.985 35.616C386.118 37.7813 384.531 40.1707 383.225 42.784C381.955 45.36 380.966 48.1227 380.257 51.072C379.585 54.0213 379.249 57.0453 379.249 60.144C379.249 63.84 379.809 67.2 380.929 70.224C382.086 73.248 383.691 75.8427 385.745 78.008C387.835 80.136 390.318 81.7973 393.193 82.992C396.067 84.1493 399.222 84.728 402.657 84.728C405.419 84.728 407.958 84.504 410.273 84.056C412.625 83.608 414.827 82.9173 416.881 81.984C418.971 81.0133 420.987 79.8 422.929 78.344Z" fill="white"/>
<path fill-rule="evenodd" clip-rule="evenodd" d="M66.823 38.92C68.9883 36.6053 71.5083 35.448 74.383 35.448C76.0256 35.448 77.2203 35.8773 77.9669 36.736C78.7136 37.5947 79.0869 38.5093 79.0869 39.48C79.0869 40.4507 78.8629 41.3467 78.4149 42.168C78.0043 42.9893 77.183 43.7733 75.951 44.52C74.719 45.2293 72.983 45.9013 70.743 46.536C68.5029 47.1707 65.591 47.768 62.007 48.328C63.0523 44.3333 64.6576 41.1973 66.823 38.92ZM87.487 77.112C89.4656 75.6187 91.4816 73.864 93.5349 71.848C88.1464 68.3878 84.1153 67.8264 75.0146 70.0263C74.899 70.0557 74.7819 70.0842 74.663 70.112C73.543 70.3733 72.2176 70.504 70.687 70.504C67.439 70.504 64.975 69.5893 63.295 67.76C61.6523 65.9307 60.7936 63.0373 60.719 59.08C67.3643 58.408 72.871 57.4747 77.239 56.28C81.6443 55.0853 85.135 53.6293 87.711 51.912C90.3243 50.1947 92.1536 48.2533 93.1989 46.088C94.2443 43.8853 94.767 41.4587 94.767 38.808C94.767 37.016 94.3376 35.224 93.4789 33.432C92.6203 31.64 91.3696 30.0347 89.727 28.616C88.0843 27.16 86.0496 25.984 83.623 25.088C81.2336 24.192 78.4896 23.744 75.391 23.744C72.255 23.744 69.287 24.192 66.487 25.088C63.7243 25.9467 61.1669 27.16 58.8149 28.728C56.5003 30.296 54.4096 32.1813 52.543 34.384C50.6763 36.5493 49.0896 38.9387 47.783 41.552C46.5136 44.128 45.5243 46.8907 44.8149 49.84C44.1429 52.7893 43.8069 55.8133 43.8069 58.912C43.8069 62.608 44.3669 65.968 45.4869 68.992C46.6443 72.016 48.2496 74.6107 50.303 76.776C52.3936 78.904 54.8763 80.5653 57.7509 81.76C60.6256 82.9173 63.7803 83.496 67.215 83.496C69.9776 83.496 72.5163 83.272 74.831 82.824C77.183 82.376 79.3856 81.6853 81.439 80.752C83.5296 79.7813 85.5456 78.568 87.487 77.112Z" fill="white"/>
<path fill-rule="evenodd" clip-rule="evenodd" d="M307.12 38.696C309.472 37.4267 312.066 36.792 314.904 36.792H315.968L313.896 52.864C313.261 55.3653 312.496 57.7173 311.6 59.92C310.704 62.1227 309.715 64.0453 308.632 65.688C307.587 67.3307 306.467 68.6373 305.272 69.608C304.077 70.5413 302.845 71.008 301.576 71.008C300.755 71.008 299.989 70.8213 299.28 70.448C298.608 70.0747 298.011 69.496 297.488 68.712C297.003 67.8907 296.61 66.8267 296.312 65.52C296.013 64.2133 295.864 62.6267 295.864 60.76C295.864 57.4747 296.312 54.3947 297.208 51.52C298.141 48.608 299.448 46.0693 301.128 43.904C302.808 41.7013 304.805 39.9653 307.12 38.696ZM304.264 81.928C307.213 80.024 309.864 77.4293 312.216 74.144C314.974 80.3017 318.512 82.2083 327.112 83.832L334.168 27.44C331.405 26.4693 328.605 25.7973 325.768 25.424C322.93 25.0507 320.131 24.864 317.368 24.864C311.693 24.864 306.485 25.9093 301.744 28C297.003 30.0907 292.896 32.9093 289.424 36.456C285.989 40.0027 283.301 44.1467 281.36 48.888C279.456 53.592 278.504 58.576 278.504 63.84C278.504 67.424 278.952 70.5413 279.848 73.192C280.744 75.8053 281.938 77.9707 283.432 79.688C284.925 81.368 286.643 82.6373 288.584 83.496C290.525 84.3173 292.541 84.728 294.632 84.728C298.141 84.728 301.352 83.7947 304.264 81.928Z" fill="white"/>
<path fill-rule="evenodd" clip-rule="evenodd" d="M260.698 0L250.506 83.832C264.494 79.4545 268.602 74.2158 270.249 62.395L270.55 59.92L275.48 19.3631C276.109 11.6799 272.472 3.22341 260.698 0Z" fill="white"/>
<path fill-rule="evenodd" clip-rule="evenodd" d="M99.5689 83.832L106.625 25.76H106.986C113.888 25.7849 117.252 27.2792 121.297 34.552C123.761 31.2667 126.356 28.84 129.081 27.272C131.806 25.6667 134.662 24.864 137.649 24.864C140.934 24.864 143.66 25.928 145.825 28.056C147.99 30.184 149.372 33.2827 149.969 37.352C152.545 33.0587 155.364 29.904 158.425 27.888C161.486 25.872 164.94 24.864 168.785 24.864C171.212 24.864 173.396 25.3493 175.337 26.32C177.278 27.2907 178.884 28.7093 180.153 30.576C181.422 32.4427 182.3 34.7573 182.785 37.52C183.308 40.2453 183.345 43.3813 182.897 46.928L180.39 68.111C178.942 80.2757 174.863 83.8194 161.537 83.832H161.393L165.761 46.928C165.948 45.36 166.004 44.0347 165.929 42.952C165.892 41.8693 165.724 41.0107 165.425 40.376C165.164 39.7413 164.772 39.2933 164.249 39.032C163.726 38.7333 163.11 38.584 162.401 38.584C161.244 38.584 160.124 38.9013 159.041 39.536C157.996 40.1333 156.988 41.0293 156.017 42.224C155.084 43.3813 154.225 44.8 153.441 46.48C152.657 48.1227 151.966 49.9707 151.369 52.024L149.476 68.068L149.473 68.1003L149.471 68.111C148.063 80.0025 144.15 83.7535 131.324 83.832H130.481L134.849 46.928C135.036 45.36 135.092 44.0347 135.017 42.952C134.98 41.8693 134.812 41.0107 134.513 40.376C134.252 39.7413 133.86 39.2933 133.337 39.032C132.814 38.7333 132.198 38.584 131.489 38.584C130.332 38.584 129.212 38.9013 128.129 39.536C127.046 40.1707 126.02 41.0853 125.049 42.28C124.116 43.4747 123.257 44.9307 122.473 46.648C121.689 48.328 120.998 50.2133 120.401 52.304L118.497 68.068C116.016 80.073 111.63 83.2465 99.5689 83.832Z" fill="white"/>
<path fill-rule="evenodd" clip-rule="evenodd" d="M207.742 69.552C208.824 70.4107 210.019 71.0267 211.326 71.4C212.67 71.7733 213.939 71.96 215.134 71.96C217.15 71.96 218.998 71.288 220.678 69.944C222.395 68.6 223.87 66.8453 225.102 64.68C226.334 62.4773 227.286 59.976 227.958 57.176C228.667 54.376 229.022 51.52 229.022 48.608C229.022 44.912 228.48 42.224 227.398 40.544C226.315 38.864 224.878 38.024 223.086 38.024C221.891 38.024 220.64 38.4907 219.334 39.424C218.064 40.32 216.814 41.552 215.582 43.12C214.387 44.688 213.248 46.536 212.166 48.664C211.12 50.792 210.224 53.0693 209.478 55.496L207.742 69.552ZM210.766 36.4C213.454 32.816 216.403 29.9973 219.614 27.944C222.862 25.8907 226.334 24.864 230.03 24.864C232.419 24.864 234.603 25.2933 236.582 26.152C238.56 26.9733 240.259 28.28 241.678 30.072C243.134 31.864 244.254 34.16 245.038 36.96C245.859 39.7227 246.27 43.0267 246.27 46.872C246.27 51.9493 245.486 56.784 243.918 61.376C242.387 65.9307 240.315 69.944 237.702 73.416C235.088 76.888 232.064 79.6507 228.63 81.704C225.232 83.72 221.667 84.728 217.934 84.728C215.544 84.728 213.379 84.336 211.438 83.552C209.534 82.768 207.854 81.7227 206.398 80.416C203.268 96.1498 198.837 100.709 186.798 102.256L196.094 25.76C204.871 27.6499 208.39 29.7518 210.766 36.4Z" fill="white"/>
<path fill-rule="evenodd" clip-rule="evenodd" d="M343.214 71.288V70.336C343.214 69.9627 343.233 69.44 343.27 68.768C343.345 68.0587 343.438 67.144 343.55 66.024C343.7 64.8667 343.886 63.3547 344.11 61.488L347.078 37.744C341.907 35.8092 340.754 33.4014 340.75 27.552L349.542 25.76L351.52 20.01C355.094 11.1182 359.186 8.97759 366.782 8.904H367.63L365.502 25.872H378.494C377.393 34.7171 374.642 37.6947 364.565 37.744H364.046L361.246 60.536C361.06 62.0667 360.91 63.28 360.798 64.176C360.686 65.0347 360.593 65.7067 360.518 66.192C360.481 66.64 360.462 66.9573 360.462 67.144V67.424C360.462 68.5067 360.705 69.4213 361.19 70.168C361.713 70.8773 362.516 71.232 363.598 71.232C369.128 71.8756 370.877 74.0282 372.752 77.927L373.566 79.688C371.252 81.368 368.769 82.6373 366.118 83.496C363.468 84.3173 360.798 84.728 358.11 84.728C355.87 84.728 353.854 84.4293 352.062 83.832C350.27 83.1973 348.721 82.3013 347.414 81.144C346.145 79.9493 345.137 78.5307 344.39 76.888C343.681 75.2453 343.289 73.3787 343.214 71.288Z" fill="white"/>
<path fill-rule="evenodd" clip-rule="evenodd" d="M33.1566 64.5L39.088 16.448C54.7506 15.9746 59.2671 12.4705 61.712 1.99997H20.832C5.97034 2.21897 1.51931 5.46975 0 16.448H20.832L12.656 83.592C26.1774 81.924 31.3554 78.4669 33.1566 64.5Z" fill="white"/>
</svg>
